<?xml version="1.0" standalone="no"?>
<!DOCTYPE svg PUBLIC "-//W3C//DTD SVG 20010904//EN"
 "http://www.w3.org/TR/2001/REC-SVG-20010904/DTD/svg10.dtd">
<svg version="1.0" xmlns="http://www.w3.org/2000/svg"
 width="700.000000pt" height="700.000000pt" viewBox="0 0 700.000000 700.000000"
 preserveAspectRatio="xMidYMid meet">
<metadata>
Created by potrace 1.11, written by Peter Selinger 2001-2013
</metadata>
<g transform="translate(0.000000,700.000000) scale(0.100000,-0.100000)"
fill="#000000" stroke="none">
<path d="M815 6994 c-97 -20 -169 -39 -215 -57 -261 -101 -468 -319 -553 -582
-48 -146 -46 -25 -46 -2860 0 -2861 -3 -2699 49 -2857 91 -276 317 -500 598
-592 138 -46 61 -45 2882 -42 1466 1 2681 5 2700 10 236 52 419 161 563 336
92 113 150 236 186 395 20 89 20 123 21 2460 l0 2370 -350 -350 -350 -350 0
-1986 c0 -2206 5 -2040 -67 -2114 -20 -20 -54 -45 -77 -55 -39 -18 -149 -19
-2647 -19 -2333 -1 -2610 1 -2651 14 -54 19 -97 55 -129 110 l-24 40 -3 2600
c-2 1430 0 2619 3 2641 8 58 58 129 114 162 l46 27 1906 3 1906 2 346 347
c191 190 347 347 347 350 0 5 -4530 2 -4555 -3z"/>
<path d="M3475 5461 c-68 -34 -119 -92 -137 -156 -9 -30 -12 -506 -12 -1850
l-1 -1810 263 -2 262 -2 0 1814 c0 1742 -1 1817 -19 1864 -37 99 -124 161
-236 169 -51 3 -69 -1 -120 -27z"/>
<path d="M2462 4602 c-68 -19 -132 -76 -163 -144 l-23 -53 0 -1380 -1 -1380
263 -2 262 -2 -2 1392 c-3 1354 -4 1393 -22 1431 -58 116 -189 173 -314 138z"/>
<path d="M4557 3726 c-87 -31 -150 -98 -171 -180 -8 -29 -11 -337 -11 -972 l0
-929 263 -2 262 -2 -1 942 c0 916 -1 943 -20 994 -47 122 -199 192 -322 149z"/>
</g>
</svg>
