<svg width="16" height="16" viewBox="0 0 16 16" fill="none" xmlns="http://www.w3.org/2000/svg">
<path d="M14.4 4.85498L16 3.25515V13.8652C16 15.0433 15.0449 15.9983 13.8667 15.9983H2.13333C0.955126 15.9983 0 15.0433 0 13.8652V2.1331C0 0.955023 0.955126 0 2.13333 0H12.2932L10.6932 1.59983H2.13333C1.83878 1.59983 1.6 1.83858 1.6 2.1331V13.8652C1.6 14.1597 1.83878 14.3985 2.13333 14.3985H13.8667C14.1612 14.3985 14.4 14.1597 14.4 13.8652V4.85498Z" fill="#C7A97B"/>
<path fill-rule="evenodd" clip-rule="evenodd" d="M5.79995 5.44943C6.13132 5.44943 6.39995 5.71803 6.39995 6.04937V12.2487H5.19995V6.04937C5.19995 5.71803 5.46858 5.44943 5.79995 5.44943ZM8.19995 3.44965C8.53132 3.44965 8.79995 3.71825 8.79995 4.04958V12.2487H7.59995V4.04958C7.59995 3.71825 7.86858 3.44965 8.19995 3.44965ZM10.6 7.44922C10.9313 7.44922 11.2 7.71782 11.2 8.04915V12.2487H9.99995V8.04915C9.99995 7.71782 10.2686 7.44922 10.6 7.44922Z" fill="#2F6794"/>
</svg>
