<svg width="348" height="50" viewBox="0 0 348 50" fill="none" xmlns="http://www.w3.org/2000/svg">
<path d="M31.2203 21.5471L34.6892 18.0716V41.1212C34.6892 43.6805 32.6184 45.7552 30.064 45.7552H4.62523C2.07079 45.7552 0 43.6805 0 41.1212V15.634C0 13.0747 2.07079 11 4.62523 11H26.6526L23.1837 14.4755H4.62523C3.98662 14.4755 3.46892 14.9942 3.46892 15.634V41.1212C3.46892 41.761 3.98662 42.2797 4.62523 42.2797H30.064C30.7026 42.2797 31.2203 41.761 31.2203 41.1212V21.5471Z" fill="#C7A97B"/>
<path fill-rule="evenodd" clip-rule="evenodd" d="M12.5748 22.8385C13.2932 22.8385 13.8756 23.4221 13.8756 24.1419V37.6095H11.2739V24.1419C11.2739 23.4221 11.8563 22.8385 12.5748 22.8385ZM17.7782 18.4941C18.4966 18.4941 19.079 19.0777 19.079 19.7975V37.6095H16.4773V19.7975C16.4773 19.0777 17.0597 18.4941 17.7782 18.4941ZM22.9815 27.1829C23.7 27.1829 24.2824 27.7665 24.2824 28.4863V37.6095H21.6807V28.4863C21.6807 27.7665 22.2631 27.1829 22.9815 27.1829Z" fill="white"/>
<path d="M60.7627 44V42.7539L62.707 42.3457V29.165L60.8916 28.875V27.3174H64.2969C64.7552 27.3174 65.3066 27.2923 65.9512 27.2422C66.6029 27.1921 67.3011 27.167 68.0459 27.167C68.891 27.167 69.6823 27.2386 70.4199 27.3818C71.1647 27.5251 71.8092 27.7829 72.3535 28.1553C72.9049 28.5277 73.3382 29.0326 73.6533 29.6699C73.9756 30.3001 74.1367 31.1058 74.1367 32.0869C74.1367 32.9749 73.9648 33.7627 73.6211 34.4502C73.2845 35.1305 72.8262 35.7035 72.2461 36.1689C71.6732 36.6344 71 36.9854 70.2266 37.2217C69.4818 37.4508 68.6904 37.5654 67.8525 37.5654C67.8239 37.5654 67.7988 37.5654 67.7773 37.5654C67.4622 37.5583 67.1794 37.5547 66.9287 37.5547C66.807 37.5547 66.6924 37.5547 66.585 37.5547C66.2627 37.5547 65.987 37.5618 65.7578 37.5762V42.3564L68.4971 42.7539V44H60.7627ZM65.7578 35.9434C66.0586 35.9935 66.388 36.0257 66.7461 36.04C67.1042 36.0544 67.4264 36.0615 67.7129 36.0615C68.1497 36.0615 68.5687 36.0007 68.9697 35.8789C69.3779 35.7572 69.736 35.5423 70.0439 35.2344C70.359 34.9264 70.6097 34.5111 70.7959 33.9883C70.9821 33.4655 71.0752 32.8031 71.0752 32.001C71.0752 31.4281 70.9893 30.9339 70.8174 30.5186C70.6455 30.096 70.3984 29.7487 70.0762 29.4766C69.7611 29.1973 69.3779 28.9932 68.9268 28.8643C68.4756 28.7354 67.9743 28.6709 67.4229 28.6709C67.2939 28.6709 67.1543 28.6745 67.0039 28.6816C66.8535 28.6888 66.7031 28.6995 66.5527 28.7139C66.4023 28.7282 66.2555 28.7461 66.1123 28.7676C65.9762 28.7891 65.8581 28.8141 65.7578 28.8428V35.9434Z" fill="white"/>
<path d="M75.4688 40.1006C75.5475 39.6494 75.7266 39.252 76.0059 38.9082C76.2852 38.5573 76.6253 38.2529 77.0264 37.9951C77.4274 37.7373 77.8714 37.5225 78.3584 37.3506C78.8454 37.1715 79.3324 37.0319 79.8193 36.9316C80.3063 36.8242 80.779 36.749 81.2373 36.7061C81.6956 36.6559 82.0967 36.6309 82.4404 36.6309V36.2227C82.4404 35.6569 82.3796 35.195 82.2578 34.8369C82.1361 34.4788 81.9606 34.1995 81.7314 33.999C81.5094 33.7913 81.2409 33.6517 80.9258 33.5801C80.6107 33.5085 80.2598 33.4727 79.873 33.4727C79.515 33.4727 79.1676 33.5049 78.8311 33.5693C78.4945 33.6266 78.1794 33.6982 77.8857 33.7842C77.5921 33.8701 77.3271 33.9668 77.0908 34.0742C76.8545 34.1745 76.6576 34.2676 76.5 34.3535L75.9199 32.9893C76.099 32.8389 76.3532 32.6885 76.6826 32.5381C77.0192 32.3805 77.4059 32.2409 77.8428 32.1191C78.2796 31.9902 78.7559 31.8864 79.2715 31.8076C79.7871 31.7288 80.3206 31.6895 80.8721 31.6895C81.5238 31.6895 82.1325 31.7539 82.6982 31.8828C83.264 32.0046 83.7546 32.2266 84.1699 32.5488C84.5853 32.8639 84.9111 33.2936 85.1475 33.8379C85.3838 34.375 85.502 35.0625 85.502 35.9004L85.4912 42.7754H86.877V43.7314C86.7194 43.8317 86.5404 43.9176 86.3398 43.9893C86.1393 44.0609 85.9281 44.1182 85.7061 44.1611C85.4912 44.2041 85.2728 44.2327 85.0508 44.2471C84.8288 44.2686 84.6175 44.2793 84.417 44.2793C84.2809 44.2793 84.1198 44.265 83.9336 44.2363C83.7474 44.2148 83.5684 44.1611 83.3965 44.0752C83.2246 43.9964 83.0778 43.8783 82.9561 43.7207C82.8343 43.556 82.7734 43.3376 82.7734 43.0654V42.9688C82.4082 43.334 81.957 43.6455 81.4199 43.9033C80.8828 44.154 80.2311 44.2793 79.4648 44.2793C78.6914 44.2793 78.029 44.1647 77.4775 43.9355C76.9261 43.7064 76.4857 43.3984 76.1562 43.0117C75.8268 42.625 75.6048 42.181 75.4902 41.6797C75.4329 41.4147 75.4007 41.1462 75.3936 40.874C75.3936 40.6234 75.4186 40.3656 75.4688 40.1006ZM78.4766 40.4766C78.4766 41.2428 78.6842 41.7871 79.0996 42.1094C79.4505 42.3815 79.9339 42.5176 80.5498 42.5176C80.6572 42.5176 80.7718 42.514 80.8936 42.5068C81.2015 42.4782 81.4808 42.3958 81.7314 42.2598C81.9893 42.1165 82.222 41.9626 82.4297 41.7979C82.4297 41.1676 82.4297 40.541 82.4297 39.918C82.4368 39.2949 82.4404 38.6683 82.4404 38.0381C82.1826 38.0381 81.9033 38.0524 81.6025 38.0811C81.3089 38.1097 81.0153 38.1598 80.7217 38.2314C80.4281 38.3031 80.1452 38.3997 79.873 38.5215C79.6081 38.6432 79.3717 38.7936 79.1641 38.9727C78.9564 39.1517 78.7881 39.3665 78.6592 39.6172C78.5374 39.8607 78.4766 40.1471 78.4766 40.4766Z" fill="white"/>
<path d="M88.0908 33.7842V32.7314L91.582 31.6895L92.2266 31.9043V33.2256C92.3125 33.1038 92.4557 32.9535 92.6562 32.7744C92.8639 32.5954 93.1217 32.4235 93.4297 32.2588C93.7376 32.0869 94.0921 31.9401 94.4932 31.8184C94.9014 31.6966 95.349 31.6357 95.8359 31.6357C96.459 31.6357 97.057 31.7396 97.6299 31.9473C98.21 32.1478 98.722 32.4844 99.166 32.957C99.6172 33.4225 99.9753 34.0348 100.24 34.7939C100.505 35.5531 100.638 36.4912 100.638 37.6084C100.638 38.5107 100.477 39.3665 100.154 40.1758C99.832 40.9779 99.3844 41.6833 98.8115 42.292C98.2386 42.8936 97.5547 43.3734 96.7598 43.7314C95.972 44.0824 95.1126 44.2578 94.1816 44.2578C93.8594 44.2578 93.5514 44.2327 93.2578 44.1826C92.9642 44.1325 92.7135 44.0824 92.5059 44.0322L92.6133 46.2881V47.9746L94.8262 48.2539V49.4893H88.123V48.2539L89.584 47.9746V34.7295L88.0908 33.7842ZM92.6025 34.2461L92.6133 38.3066V41.8623C92.6777 41.9912 92.778 42.1094 92.9141 42.2168C93.0501 42.3171 93.2077 42.403 93.3867 42.4746C93.5729 42.5462 93.7734 42.6035 93.9883 42.6465C94.2103 42.6823 94.4395 42.7002 94.6758 42.7002C95.0052 42.7002 95.3418 42.625 95.6855 42.4746C96.0365 42.3242 96.3551 42.07 96.6416 41.7119C96.9281 41.3467 97.1608 40.8704 97.3398 40.2832C97.526 39.6888 97.6227 38.9512 97.6299 38.0703C97.6299 38.0345 97.6299 38.0023 97.6299 37.9736C97.6299 37.0928 97.5404 36.3587 97.3613 35.7715C97.168 35.1628 96.9245 34.6794 96.6309 34.3213C96.3372 33.9561 96.0078 33.7018 95.6426 33.5586C95.2845 33.4154 94.9336 33.3438 94.5898 33.3438C94.3392 33.3438 94.11 33.376 93.9023 33.4404C93.6947 33.5049 93.5085 33.5837 93.3438 33.6768C93.179 33.7699 93.0322 33.8701 92.9033 33.9775C92.7816 34.0778 92.6813 34.1673 92.6025 34.2461Z" fill="white"/>
<path d="M102.464 38.1777C102.464 37.2611 102.611 36.4053 102.904 35.6104C103.198 34.8154 103.617 34.1279 104.161 33.5479C104.713 32.9606 105.375 32.4987 106.148 32.1621C106.929 31.8184 107.803 31.6429 108.77 31.6357C108.798 31.6357 108.823 31.6357 108.845 31.6357C109.582 31.6429 110.227 31.7467 110.778 31.9473C111.351 32.1621 111.827 32.4629 112.207 32.8496C112.594 33.2363 112.887 33.709 113.088 34.2676C113.288 34.819 113.403 35.4349 113.432 36.1152C113.439 36.2441 113.442 36.3695 113.442 36.4912C113.442 36.7848 113.428 37.0534 113.399 37.2969C113.364 37.6406 113.328 37.9521 113.292 38.2314H105.59C105.59 38.2529 105.59 38.2744 105.59 38.2959C105.597 38.3102 105.601 38.3245 105.601 38.3389C105.644 39.0765 105.765 39.7031 105.966 40.2188C106.174 40.7344 106.442 41.1569 106.771 41.4863C107.108 41.8086 107.495 42.0449 107.932 42.1953C108.368 42.3457 108.834 42.4209 109.328 42.4209C109.593 42.4209 109.872 42.4066 110.166 42.3779C110.467 42.3493 110.76 42.3063 111.047 42.249C111.34 42.1917 111.623 42.1201 111.896 42.0342C112.168 41.9482 112.418 41.848 112.647 41.7334L113.142 42.8936C112.898 43.1012 112.594 43.2946 112.229 43.4736C111.863 43.6455 111.466 43.7923 111.036 43.9141C110.599 44.0358 110.145 44.1289 109.672 44.1934C109.242 44.2507 108.816 44.2793 108.394 44.2793C108.343 44.2793 108.297 44.2793 108.254 44.2793C107.33 44.2721 106.507 44.1253 105.783 43.8389C105.067 43.5524 104.462 43.1478 103.968 42.625C103.474 42.1022 103.098 41.4684 102.84 40.7236C102.589 39.9717 102.464 39.123 102.464 38.1777ZM105.622 36.7061H110.381C110.402 36.3981 110.417 36.0794 110.424 35.75C110.424 35.707 110.424 35.6605 110.424 35.6104C110.424 35.3239 110.402 35.0482 110.359 34.7832C110.316 34.4753 110.23 34.1924 110.102 33.9346C109.98 33.6768 109.797 33.4655 109.554 33.3008C109.403 33.2005 109.228 33.1217 109.027 33.0645C108.827 33.0072 108.598 32.9785 108.34 32.9785C107.917 32.9785 107.545 33.0752 107.223 33.2686C106.908 33.4619 106.639 33.7269 106.417 34.0635C106.195 34.4001 106.016 34.7975 105.88 35.2559C105.751 35.707 105.665 36.1904 105.622 36.7061Z" fill="white"/>
<path d="M115.537 44V42.7754L117.041 42.5176V34.7295L115.548 33.7842V32.7314L119.039 31.6895L119.694 31.8936V33.8057C119.802 33.512 119.988 33.2363 120.253 32.9785C120.518 32.7207 120.812 32.4987 121.134 32.3125C121.456 32.1191 121.785 31.9688 122.122 31.8613C122.466 31.7467 122.774 31.6895 123.046 31.6895C123.289 31.6895 123.511 31.7002 123.712 31.7217C123.92 31.736 124.066 31.7611 124.152 31.7969V34.6758C123.945 34.5397 123.669 34.4323 123.325 34.3535C122.989 34.2676 122.641 34.2246 122.283 34.2246C121.982 34.2246 121.717 34.2425 121.488 34.2783C121.259 34.3141 121.055 34.3607 120.876 34.418C120.697 34.4753 120.543 34.5361 120.414 34.6006C120.292 34.665 120.188 34.7259 120.103 34.7832V42.4531L122.842 42.7754V44H115.537Z" fill="white"/>
<path d="M124.636 33.5586V31.9795H130.114V33.5586L128.879 33.8379L130.447 39.4883L130.909 41.4648L131.253 39.6709L133.294 31.9795H135.872L137.859 39.6709L138.321 41.5508L138.74 39.7139L140.126 33.8379L138.751 33.5586V31.9795H143.66V33.5479L142.231 33.8594L139.277 44.1504H136.431L134.486 37.4795L134.035 35.4814L133.627 37.4795L131.854 44.1504H129.126L125.807 33.8164L124.636 33.5586Z" fill="white"/>
<path d="M144.648 37.877C144.663 36.8385 144.842 35.929 145.186 35.1484C145.536 34.3678 145.995 33.7197 146.561 33.2041C147.133 32.6885 147.789 32.3018 148.526 32.0439C149.271 31.779 150.045 31.6393 150.847 31.625C150.868 31.625 150.893 31.625 150.922 31.625C151.831 31.625 152.637 31.7611 153.339 32.0332C154.062 32.3125 154.671 32.7207 155.165 33.2578C155.659 33.7878 156.032 34.4323 156.282 35.1914C156.54 35.9434 156.669 36.792 156.669 37.7373C156.662 38.79 156.493 39.721 156.164 40.5303C155.835 41.3395 155.391 42.0199 154.832 42.5713C154.273 43.1227 153.625 43.5417 152.888 43.8281C152.15 44.1146 151.373 44.2578 150.557 44.2578C149.482 44.2578 148.566 44.0895 147.807 43.7529C147.055 43.4092 146.442 42.9437 145.97 42.3564C145.504 41.7764 145.164 41.0996 144.949 40.3262C144.749 39.6029 144.648 38.8402 144.648 38.0381C144.648 37.988 144.648 37.9342 144.648 37.877ZM147.893 37.6621C147.893 38.0345 147.91 38.4212 147.946 38.8223C147.989 39.2233 148.057 39.6172 148.15 40.0039C148.243 40.3835 148.362 40.7451 148.505 41.0889C148.648 41.4326 148.82 41.737 149.021 42.002C149.228 42.2598 149.468 42.4674 149.74 42.625C150.012 42.7754 150.32 42.8506 150.664 42.8506C150.678 42.8506 150.693 42.8506 150.707 42.8506C151.23 42.8506 151.667 42.7217 152.018 42.4639C152.376 42.1989 152.659 41.8408 152.866 41.3896C153.074 40.9385 153.217 40.4121 153.296 39.8105C153.382 39.2018 153.425 38.5573 153.425 37.877C153.425 37.2754 153.382 36.6846 153.296 36.1045C153.21 35.5244 153.063 35.0052 152.855 34.5469C152.655 34.0885 152.379 33.7197 152.028 33.4404C151.685 33.154 151.255 33.0072 150.739 33C150.725 33 150.711 33 150.696 33C150.174 33 149.733 33.1217 149.375 33.3652C149.017 33.6159 148.723 33.9561 148.494 34.3857C148.272 34.8083 148.115 35.3024 148.021 35.8682C147.936 36.4339 147.893 37.0319 147.893 37.6621Z" fill="white"/>
<path d="M158.678 44V42.7754L160.182 42.5176V34.7295L158.688 33.7842V32.7314L162.18 31.6895L162.835 31.8936V33.8057C162.942 33.512 163.129 33.2363 163.394 32.9785C163.659 32.7207 163.952 32.4987 164.274 32.3125C164.597 32.1191 164.926 31.9688 165.263 31.8613C165.606 31.7467 165.914 31.6895 166.187 31.6895C166.43 31.6895 166.652 31.7002 166.853 31.7217C167.06 31.736 167.207 31.7611 167.293 31.7969V34.6758C167.085 34.5397 166.81 34.4323 166.466 34.3535C166.129 34.2676 165.782 34.2246 165.424 34.2246C165.123 34.2246 164.858 34.2425 164.629 34.2783C164.4 34.3141 164.196 34.3607 164.017 34.418C163.838 34.4753 163.684 34.5361 163.555 34.6006C163.433 34.665 163.329 34.7259 163.243 34.7832V42.4531L165.982 42.7754V44H158.678Z" fill="white"/>
<path d="M168.442 28.3701V27.1025L172.75 26.5117L173.309 26.7803V36.3945L173.212 37.9629L177.251 33.7197L175.436 33.5156V31.9365H181.526V33.5156L179.582 33.709L176.531 36.7061L180.57 42.5391L181.838 42.7646V44H175.983V42.7646L177.101 42.4854L174.587 38.4141L173.201 39.8965L173.298 41.2822V42.5176L174.684 42.7754V44H168.679V42.7754L170.258 42.4854V28.9717L168.442 28.3701Z" fill="white"/>
<path d="M188.562 44V42.7539L190.496 42.3457V29.1006L188.788 28.875V27.3174H191.377C192.107 27.3174 192.827 27.2923 193.536 27.2422C194.252 27.1921 194.922 27.167 195.545 27.167C196.426 27.167 197.239 27.2422 197.983 27.3926C198.728 27.543 199.373 27.79 199.917 28.1338C200.468 28.4775 200.898 28.9287 201.206 29.4873C201.514 30.0459 201.668 30.737 201.668 31.5605C201.668 32.778 201.36 33.7985 200.744 34.6221C200.128 35.4456 199.229 36.0615 198.048 36.4697C198.37 36.6201 198.678 36.8564 198.972 37.1787C199.265 37.501 199.545 37.8662 199.81 38.2744C200.075 38.6826 200.329 39.1087 200.572 39.5527C200.816 39.9967 201.049 40.4157 201.271 40.8096C201.5 41.1963 201.722 41.5329 201.937 41.8193C202.151 42.1058 202.363 42.2956 202.57 42.3887L203.859 42.7539V44H199.949C199.792 44 199.627 43.8997 199.455 43.6992C199.29 43.4915 199.118 43.2194 198.939 42.8828C198.768 42.5462 198.585 42.1667 198.392 41.7441C198.205 41.3145 198.012 40.8776 197.812 40.4336C197.618 39.9896 197.414 39.5563 197.199 39.1338C196.984 38.7041 196.762 38.3245 196.533 37.9951C196.29 37.6729 196.046 37.4115 195.803 37.2109C195.574 37.0247 195.337 36.9316 195.094 36.9316C195.079 36.9316 195.062 36.9316 195.04 36.9316L193.558 36.9531V42.3779L195.685 42.7539V44H188.562ZM193.558 35.417C193.687 35.4385 193.84 35.4564 194.02 35.4707C194.206 35.485 194.396 35.4958 194.589 35.5029C194.782 35.5101 194.972 35.5101 195.158 35.5029C195.344 35.4958 195.513 35.485 195.663 35.4707C196.05 35.4492 196.422 35.3776 196.78 35.2559C197.138 35.127 197.453 34.9264 197.726 34.6543C198.005 34.3822 198.227 34.0205 198.392 33.5693C198.556 33.1182 198.639 32.5596 198.639 31.8936C198.639 31.4567 198.581 31.0413 198.467 30.6475C198.352 30.2464 198.159 29.8991 197.887 29.6055C197.615 29.3047 197.253 29.0684 196.802 28.8965C196.372 28.7318 195.842 28.653 195.212 28.6602C195.183 28.6602 195.155 28.6602 195.126 28.6602C194.854 28.6673 194.571 28.6781 194.277 28.6924C193.991 28.6995 193.751 28.7389 193.558 28.8105V35.417Z" fill="white"/>
<path d="M204.601 38.1777C204.601 37.2611 204.747 36.4053 205.041 35.6104C205.335 34.8154 205.754 34.1279 206.298 33.5479C206.849 32.9606 207.512 32.4987 208.285 32.1621C209.066 31.8184 209.939 31.6429 210.906 31.6357C210.935 31.6357 210.96 31.6357 210.981 31.6357C211.719 31.6429 212.364 31.7467 212.915 31.9473C213.488 32.1621 213.964 32.4629 214.344 32.8496C214.73 33.2363 215.024 33.709 215.225 34.2676C215.425 34.819 215.54 35.4349 215.568 36.1152C215.576 36.2441 215.579 36.3695 215.579 36.4912C215.579 36.7848 215.565 37.0534 215.536 37.2969C215.5 37.6406 215.465 37.9521 215.429 38.2314H207.727C207.727 38.2529 207.727 38.2744 207.727 38.2959C207.734 38.3102 207.737 38.3245 207.737 38.3389C207.78 39.0765 207.902 39.7031 208.103 40.2188C208.31 40.7344 208.579 41.1569 208.908 41.4863C209.245 41.8086 209.632 42.0449 210.068 42.1953C210.505 42.3457 210.971 42.4209 211.465 42.4209C211.73 42.4209 212.009 42.4066 212.303 42.3779C212.604 42.3493 212.897 42.3063 213.184 42.249C213.477 42.1917 213.76 42.1201 214.032 42.0342C214.304 41.9482 214.555 41.848 214.784 41.7334L215.278 42.8936C215.035 43.1012 214.73 43.2946 214.365 43.4736C214 43.6455 213.603 43.7923 213.173 43.9141C212.736 44.0358 212.281 44.1289 211.809 44.1934C211.379 44.2507 210.953 44.2793 210.53 44.2793C210.48 44.2793 210.434 44.2793 210.391 44.2793C209.467 44.2721 208.643 44.1253 207.92 43.8389C207.204 43.5524 206.599 43.1478 206.104 42.625C205.61 42.1022 205.234 41.4684 204.977 40.7236C204.726 39.9717 204.601 39.123 204.601 38.1777ZM207.759 36.7061H212.518C212.539 36.3981 212.553 36.0794 212.561 35.75C212.561 35.707 212.561 35.6605 212.561 35.6104C212.561 35.3239 212.539 35.0482 212.496 34.7832C212.453 34.4753 212.367 34.1924 212.238 33.9346C212.117 33.6768 211.934 33.4655 211.69 33.3008C211.54 33.2005 211.365 33.1217 211.164 33.0645C210.964 33.0072 210.734 32.9785 210.477 32.9785C210.054 32.9785 209.682 33.0752 209.359 33.2686C209.044 33.4619 208.776 33.7269 208.554 34.0635C208.332 34.4001 208.153 34.7975 208.017 35.2559C207.888 35.707 207.802 36.1904 207.759 36.7061Z" fill="white"/>
<path d="M217.47 38.1885C217.47 37.2288 217.642 36.348 217.985 35.5459C218.336 34.7438 218.812 34.0527 219.414 33.4727C220.016 32.8926 220.717 32.4414 221.52 32.1191C222.329 31.7897 223.195 31.625 224.119 31.625C224.348 31.625 224.599 31.6357 224.871 31.6572C225.143 31.6715 225.43 31.7109 225.73 31.7754V28.7783L223.389 28.2627V27.0059L228.169 26.5117L228.781 26.7803V42.7754H230.274V43.7744C230.024 43.9105 229.651 44.0358 229.157 44.1504C228.663 44.265 228.09 44.3223 227.438 44.3223C227.016 44.3223 226.665 44.2507 226.386 44.1074C226.114 43.9714 225.938 43.7207 225.859 43.3555C225.716 43.4629 225.541 43.5739 225.333 43.6885C225.132 43.7959 224.889 43.8926 224.603 43.9785C224.316 44.0645 223.99 44.1361 223.625 44.1934C223.26 44.2507 222.852 44.2793 222.4 44.2793C221.82 44.2793 221.237 44.1647 220.649 43.9355C220.062 43.6992 219.532 43.334 219.06 42.8398C218.594 42.3457 218.211 41.7155 217.91 40.9492C217.617 40.1829 217.47 39.2627 217.47 38.1885ZM220.606 37.501C220.606 37.5726 220.606 37.6442 220.606 37.7158C220.599 38.4176 220.66 39.0443 220.789 39.5957C220.932 40.1973 221.126 40.7093 221.369 41.1318C221.62 41.5472 221.91 41.8766 222.239 42.1201C222.576 42.3636 222.927 42.5176 223.292 42.582C223.464 42.6107 223.636 42.625 223.808 42.625C223.951 42.625 224.094 42.6143 224.237 42.5928C224.581 42.5713 224.878 42.5212 225.129 42.4424C225.38 42.3636 225.58 42.2741 225.73 42.1738V33.5264C225.286 33.1468 224.649 32.957 223.818 32.957C223.639 32.957 223.435 32.9821 223.206 33.0322C222.984 33.0824 222.755 33.1755 222.519 33.3115C222.282 33.4404 222.049 33.6159 221.82 33.8379C221.598 34.0527 221.398 34.3285 221.219 34.665C221.047 35.0016 220.904 35.4027 220.789 35.8682C220.674 36.3337 220.614 36.8779 220.606 37.501Z" fill="white"/>
<path d="M231.725 33.6016V32.5059L235.248 31.6895L235.731 31.8828V39.3271C235.731 39.8571 235.757 40.319 235.807 40.7129C235.864 41.0996 235.964 41.4219 236.107 41.6797C236.251 41.9375 236.448 42.1309 236.698 42.2598C236.949 42.3815 237.271 42.4424 237.665 42.4424C237.909 42.4424 238.152 42.4173 238.396 42.3672C238.639 42.3099 238.865 42.2419 239.072 42.1631C239.287 42.0771 239.477 41.984 239.642 41.8838C239.813 41.7835 239.946 41.6868 240.039 41.5938V34.3105L238.686 33.7305V32.5059L242.563 31.6895L243.025 31.8721V42.7754H244.282V43.7852C244.168 43.8568 244.014 43.9284 243.82 44C243.627 44.0645 243.412 44.1217 243.176 44.1719C242.939 44.222 242.692 44.2614 242.435 44.29C242.177 44.3187 241.93 44.333 241.693 44.333C241.299 44.333 240.974 44.2471 240.716 44.0752C240.465 43.9105 240.34 43.6383 240.34 43.2588V42.6465C240.089 42.9043 239.806 43.1335 239.491 43.334C239.183 43.5345 238.861 43.7064 238.524 43.8496C238.195 43.9857 237.866 44.0895 237.536 44.1611C237.207 44.2327 236.899 44.2686 236.612 44.2686C235.825 44.2686 235.18 44.1647 234.679 43.957C234.185 43.7422 233.794 43.4307 233.508 43.0225C233.229 42.6143 233.035 42.113 232.928 41.5186C232.827 40.9242 232.777 40.2438 232.777 39.4775V34.1709L231.725 33.6016Z" fill="white"/>
<path d="M245.947 38.2959C245.947 38.2744 245.947 38.2529 245.947 38.2314C245.947 37.2432 246.105 36.3516 246.42 35.5566C246.749 34.7474 247.197 34.0599 247.763 33.4941C248.336 32.9212 249.005 32.4808 249.771 32.1729C250.545 31.8577 251.376 31.6823 252.264 31.6465C252.35 31.6465 252.436 31.6465 252.521 31.6465C252.779 31.6465 253.041 31.6536 253.306 31.668C253.664 31.6895 254.004 31.7253 254.326 31.7754C254.656 31.8184 254.953 31.8757 255.218 31.9473C255.49 32.0189 255.701 32.1012 255.852 32.1943V35.2451H254.305L253.585 33.5049C253.37 33.3617 253.116 33.265 252.822 33.2148C252.529 33.1647 252.26 33.1396 252.017 33.1396C251.601 33.1396 251.215 33.2292 250.856 33.4082C250.506 33.5872 250.198 33.8522 249.933 34.2031C249.668 34.5469 249.456 34.9801 249.299 35.5029C249.141 36.0186 249.055 36.613 249.041 37.2861C249.041 37.3721 249.041 37.458 249.041 37.5439C249.041 38.3532 249.134 39.0514 249.32 39.6387C249.521 40.2832 249.793 40.8132 250.137 41.2285C250.488 41.6439 250.889 41.9482 251.34 42.1416C251.791 42.335 252.249 42.4316 252.715 42.4316C253.016 42.4316 253.316 42.4137 253.617 42.3779C253.925 42.335 254.215 42.2812 254.487 42.2168C254.759 42.1523 255.003 42.0771 255.218 41.9912C255.44 41.9053 255.622 41.8122 255.766 41.7119L256.249 42.8936C255.998 43.1084 255.701 43.3018 255.357 43.4736C255.021 43.6455 254.652 43.7923 254.251 43.9141C253.85 44.0286 253.42 44.1146 252.962 44.1719C252.511 44.2363 252.045 44.2686 251.565 44.2686C250.663 44.2686 249.861 44.1182 249.159 43.8174C248.465 43.5166 247.881 43.1012 247.408 42.5713C246.936 42.0413 246.574 41.4111 246.323 40.6807C246.08 39.9502 245.954 39.1553 245.947 38.2959Z" fill="white"/>
<path d="M257.474 33.6553V32.6133C257.717 32.5632 257.936 32.5166 258.129 32.4736C258.329 32.4235 258.505 32.3698 258.655 32.3125C258.813 32.248 258.952 32.1729 259.074 32.0869C259.203 32.001 259.318 31.8864 259.418 31.7432C259.504 31.6357 259.593 31.4854 259.687 31.292C259.787 31.0986 259.883 30.8838 259.977 30.6475C260.077 30.4111 260.17 30.1605 260.256 29.8955C260.349 29.6305 260.431 29.3691 260.503 29.1113H261.985V31.9795H265.627V33.6553H262.082V38.2207C262.082 39.123 262.096 39.8464 262.125 40.3906C262.161 40.9349 262.225 41.3538 262.318 41.6475C262.419 41.9411 262.551 42.1344 262.716 42.2275C262.881 42.3206 263.099 42.3672 263.371 42.3672C263.529 42.3672 263.704 42.3564 263.897 42.335C264.098 42.3063 264.291 42.2741 264.478 42.2383C264.664 42.1953 264.836 42.1488 264.993 42.0986C265.158 42.0413 265.287 41.984 265.38 41.9268L265.842 43.0332C265.677 43.2122 265.451 43.377 265.165 43.5273C264.879 43.6777 264.556 43.8066 264.198 43.9141C263.847 44.0215 263.475 44.1038 263.081 44.1611C262.694 44.2256 262.311 44.2578 261.932 44.2578C261.409 44.2578 260.968 44.1862 260.61 44.043C260.252 43.9069 259.962 43.6956 259.74 43.4092C259.518 43.1156 259.357 42.7432 259.257 42.292C259.157 41.8408 259.106 41.3037 259.106 40.6807V33.6553H257.474Z" fill="white"/>
<path d="M267.421 44V42.7754L269.032 42.4961V34.9121L267.614 33.6982V32.8389L271.32 31.6895L272.04 31.9365V42.5176L273.673 42.7754V44H267.421ZM268.312 27.8223C268.312 27.5286 268.377 27.2565 268.506 27.0059C268.635 26.7552 268.803 26.5404 269.011 26.3613C269.226 26.1751 269.462 26.0319 269.72 25.9316C269.985 25.8242 270.246 25.7705 270.504 25.7705C270.826 25.7705 271.102 25.8171 271.331 25.9102C271.56 26.0033 271.75 26.1286 271.9 26.2861C272.051 26.4365 272.162 26.6191 272.233 26.834C272.305 27.0417 272.341 27.2637 272.341 27.5C272.341 27.8079 272.276 28.0872 272.147 28.3379C272.026 28.5885 271.861 28.8034 271.653 28.9824C271.453 29.1543 271.22 29.2904 270.955 29.3906C270.697 29.4837 270.432 29.5303 270.16 29.5303C269.924 29.5303 269.695 29.4909 269.473 29.4121C269.251 29.3333 269.054 29.2223 268.882 29.0791C268.71 28.9287 268.57 28.7497 268.463 28.542C268.363 28.3271 268.312 28.0872 268.312 27.8223Z" fill="white"/>
<path d="M275.102 37.877C275.116 36.8385 275.295 35.929 275.639 35.1484C275.99 34.3678 276.448 33.7197 277.014 33.2041C277.587 32.6885 278.242 32.3018 278.979 32.0439C279.724 31.779 280.498 31.6393 281.3 31.625C281.321 31.625 281.346 31.625 281.375 31.625C282.285 31.625 283.09 31.7611 283.792 32.0332C284.515 32.3125 285.124 32.7207 285.618 33.2578C286.112 33.7878 286.485 34.4323 286.735 35.1914C286.993 35.9434 287.122 36.792 287.122 37.7373C287.115 38.79 286.947 39.721 286.617 40.5303C286.288 41.3395 285.844 42.0199 285.285 42.5713C284.727 43.1227 284.078 43.5417 283.341 43.8281C282.603 44.1146 281.826 44.2578 281.01 44.2578C279.936 44.2578 279.019 44.0895 278.26 43.7529C277.508 43.4092 276.896 42.9437 276.423 42.3564C275.957 41.7764 275.617 41.0996 275.402 40.3262C275.202 39.6029 275.102 38.8402 275.102 38.0381C275.102 37.988 275.102 37.9342 275.102 37.877ZM278.346 37.6621C278.346 38.0345 278.364 38.4212 278.399 38.8223C278.442 39.2233 278.51 39.6172 278.604 40.0039C278.697 40.3835 278.815 40.7451 278.958 41.0889C279.101 41.4326 279.273 41.737 279.474 42.002C279.681 42.2598 279.921 42.4674 280.193 42.625C280.465 42.7754 280.773 42.8506 281.117 42.8506C281.132 42.8506 281.146 42.8506 281.16 42.8506C281.683 42.8506 282.12 42.7217 282.471 42.4639C282.829 42.1989 283.112 41.8408 283.319 41.3896C283.527 40.9385 283.67 40.4121 283.749 39.8105C283.835 39.2018 283.878 38.5573 283.878 37.877C283.878 37.2754 283.835 36.6846 283.749 36.1045C283.663 35.5244 283.516 35.0052 283.309 34.5469C283.108 34.0885 282.832 33.7197 282.481 33.4404C282.138 33.154 281.708 33.0072 281.192 33C281.178 33 281.164 33 281.149 33C280.627 33 280.186 33.1217 279.828 33.3652C279.47 33.6159 279.176 33.9561 278.947 34.3857C278.725 34.8083 278.568 35.3024 278.475 35.8682C278.389 36.4339 278.346 37.0319 278.346 37.6621Z" fill="white"/>
<path d="M289.152 33.7842V32.7314L292.644 31.6895L293.31 31.9043V33.4619C293.575 33.2184 293.879 32.9893 294.223 32.7744C294.574 32.5596 294.942 32.3734 295.329 32.2158C295.723 32.0583 296.124 31.9329 296.532 31.8398C296.94 31.7467 297.341 31.6966 297.735 31.6895C297.757 31.6895 297.778 31.6895 297.8 31.6895C298.437 31.6895 298.978 31.7897 299.422 31.9902C299.88 32.1908 300.245 32.4987 300.518 32.9141C300.797 33.3223 300.994 33.8379 301.108 34.4609C301.223 35.0768 301.28 35.7965 301.28 36.6201V42.5176L302.881 42.7754V44H296.661V42.7754L298.229 42.4961V37.0605C298.229 36.4518 298.201 35.9362 298.144 35.5137C298.086 35.0911 297.972 34.751 297.8 34.4932C297.635 34.2282 297.402 34.0384 297.102 33.9238C296.822 33.8164 296.453 33.7663 295.995 33.7734C295.966 33.7734 295.938 33.7734 295.909 33.7734C295.773 33.7806 295.612 33.8021 295.426 33.8379C295.247 33.8665 295.057 33.9131 294.856 33.9775C294.656 34.042 294.455 34.1208 294.255 34.2139C294.054 34.307 293.868 34.4144 293.696 34.5361V42.5068L295.136 42.7754V44H289.249V42.7754L290.646 42.5283V34.7295L289.152 33.7842Z" fill="white"/>
<path d="M309.326 44V42.7539L310.798 42.3672L316.223 27.3174H319.037L324.269 42.3672L325.934 42.7646V44H319.316V42.7646L320.896 42.3457L320.154 39.9287H314.031L313.269 42.3242L314.955 42.7539V44H309.326ZM314.568 38.2529H319.628L318.06 33.1934L317.168 30.1211L314.568 38.2529Z" fill="white"/>
<path d="M326.922 38.2959C326.922 38.2744 326.922 38.2529 326.922 38.2314C326.922 37.2432 327.079 36.3516 327.395 35.5566C327.724 34.7474 328.172 34.0599 328.737 33.4941C329.31 32.9212 329.98 32.4808 330.746 32.1729C331.52 31.8577 332.35 31.6823 333.238 31.6465C333.324 31.6465 333.41 31.6465 333.496 31.6465C333.754 31.6465 334.015 31.6536 334.28 31.668C334.638 31.6895 334.979 31.7253 335.301 31.7754C335.63 31.8184 335.927 31.8757 336.192 31.9473C336.465 32.0189 336.676 32.1012 336.826 32.1943V35.2451H335.279L334.56 33.5049C334.345 33.3617 334.09 33.265 333.797 33.2148C333.503 33.1647 333.235 33.1396 332.991 33.1396C332.576 33.1396 332.189 33.2292 331.831 33.4082C331.48 33.5872 331.172 33.8522 330.907 34.2031C330.642 34.5469 330.431 34.9801 330.273 35.5029C330.116 36.0186 330.03 36.613 330.016 37.2861C330.016 37.3721 330.016 37.458 330.016 37.5439C330.016 38.3532 330.109 39.0514 330.295 39.6387C330.495 40.2832 330.768 40.8132 331.111 41.2285C331.462 41.6439 331.863 41.9482 332.314 42.1416C332.766 42.335 333.224 42.4316 333.689 42.4316C333.99 42.4316 334.291 42.4137 334.592 42.3779C334.9 42.335 335.19 42.2812 335.462 42.2168C335.734 42.1523 335.978 42.0771 336.192 41.9912C336.414 41.9053 336.597 41.8122 336.74 41.7119L337.224 42.8936C336.973 43.1084 336.676 43.3018 336.332 43.4736C335.995 43.6455 335.627 43.7923 335.226 43.9141C334.825 44.0286 334.395 44.1146 333.937 44.1719C333.485 44.2363 333.02 44.2686 332.54 44.2686C331.638 44.2686 330.836 44.1182 330.134 43.8174C329.439 43.5166 328.855 43.1012 328.383 42.5713C327.91 42.0413 327.549 41.4111 327.298 40.6807C327.054 39.9502 326.929 39.1553 326.922 38.2959Z" fill="white"/>
<path d="M338.448 33.6553V32.6133C338.692 32.5632 338.91 32.5166 339.104 32.4736C339.304 32.4235 339.479 32.3698 339.63 32.3125C339.787 32.248 339.927 32.1729 340.049 32.0869C340.178 32.001 340.292 31.8864 340.393 31.7432C340.479 31.6357 340.568 31.4854 340.661 31.292C340.761 31.0986 340.858 30.8838 340.951 30.6475C341.051 30.4111 341.145 30.1605 341.23 29.8955C341.324 29.6305 341.406 29.3691 341.478 29.1113H342.96V31.9795H346.602V33.6553H343.057V38.2207C343.057 39.123 343.071 39.8464 343.1 40.3906C343.135 40.9349 343.2 41.3538 343.293 41.6475C343.393 41.9411 343.526 42.1344 343.69 42.2275C343.855 42.3206 344.074 42.3672 344.346 42.3672C344.503 42.3672 344.679 42.3564 344.872 42.335C345.073 42.3063 345.266 42.2741 345.452 42.2383C345.638 42.1953 345.81 42.1488 345.968 42.0986C346.132 42.0413 346.261 41.984 346.354 41.9268L346.816 43.0332C346.652 43.2122 346.426 43.377 346.14 43.5273C345.853 43.6777 345.531 43.8066 345.173 43.9141C344.822 44.0215 344.45 44.1038 344.056 44.1611C343.669 44.2256 343.286 44.2578 342.906 44.2578C342.383 44.2578 341.943 44.1862 341.585 44.043C341.227 43.9069 340.937 43.6956 340.715 43.4092C340.493 43.1156 340.332 42.7432 340.231 42.292C340.131 41.8408 340.081 41.3037 340.081 40.6807V33.6553H338.448Z" fill="white"/>
<path d="M64.242 7.87802H65.67L69.324 18H68.05L67.042 15.214H62.87L61.848 18H60.574L64.242 7.87802ZM66.706 14.052L64.956 9.12402L63.192 14.052H66.706Z" fill="white"/>
<path d="M77.322 20.394C76.174 20.394 75.2874 20.2214 74.662 19.876C74.046 19.5307 73.738 19.064 73.738 18.476C73.738 18.1027 73.8547 17.804 74.088 17.58C74.3307 17.356 74.55 17.1927 74.746 17.09C74.942 16.9874 75.0634 16.922 75.11 16.894C75.0914 16.8847 75.0074 16.8427 74.858 16.768C74.718 16.684 74.6014 16.5767 74.508 16.446C74.4147 16.3154 74.368 16.166 74.368 15.998C74.368 15.7647 74.4754 15.5547 74.69 15.368C74.9047 15.1814 75.222 15.0414 75.642 14.948C75.1754 14.7147 74.83 14.4347 74.606 14.108C74.3914 13.772 74.284 13.3847 74.284 12.946C74.284 12.2274 74.5687 11.6674 75.138 11.266C75.7167 10.8554 76.4774 10.65 77.42 10.65C77.8774 10.65 78.2647 10.7014 78.582 10.804C78.9087 10.9067 79.2167 11.0654 79.506 11.28C80.1687 11 80.78 10.748 81.34 10.524L81.326 11.7L80.066 11.938C80.122 12.078 80.1734 12.246 80.22 12.442C80.276 12.638 80.304 12.8014 80.304 12.932C80.304 13.352 80.192 13.7394 79.968 14.094C79.744 14.4394 79.408 14.7147 78.96 14.92C78.512 15.1254 77.9614 15.228 77.308 15.228L76.888 15.214C76.0014 15.242 75.558 15.4054 75.558 15.704C75.558 15.8347 75.656 15.928 75.852 15.984C76.0574 16.04 76.4214 16.0867 76.944 16.124L78.512 16.208C79.3054 16.264 79.898 16.4647 80.29 16.81C80.682 17.146 80.878 17.5987 80.878 18.168C80.878 18.8587 80.5654 19.4 79.94 19.792C79.324 20.1934 78.4514 20.394 77.322 20.394ZM77.336 14.402C77.9147 14.402 78.3534 14.2807 78.652 14.038C78.9507 13.786 79.1 13.4267 79.1 12.96C79.1 12.4747 78.9414 12.1014 78.624 11.84C78.3067 11.5694 77.8774 11.434 77.336 11.434C76.776 11.434 76.3374 11.5694 76.02 11.84C75.7027 12.1107 75.544 12.484 75.544 12.96C75.544 13.4174 75.698 13.772 76.006 14.024C76.3234 14.276 76.7667 14.402 77.336 14.402ZM77.546 19.582C78.2647 19.582 78.792 19.4794 79.128 19.274C79.4734 19.078 79.646 18.77 79.646 18.35C79.646 17.706 79.2027 17.356 78.316 17.3L76.258 17.174C76.0807 17.1554 75.8894 17.202 75.684 17.314C75.488 17.4167 75.32 17.5614 75.18 17.748C75.0494 17.9254 74.984 18.1214 74.984 18.336C74.984 18.756 75.1987 19.0687 75.628 19.274C76.0667 19.4794 76.706 19.582 77.546 19.582Z" fill="white"/>
<path d="M85.6163 18.126C85.1776 18.126 84.7483 18.042 84.3283 17.874C83.9083 17.706 83.5583 17.4354 83.2783 17.062C82.9983 16.6887 82.8583 16.222 82.8583 15.662V10.748H84.1183V15.536C84.1183 16.096 84.2909 16.5067 84.6363 16.768C84.9816 17.02 85.3829 17.146 85.8403 17.146C86.3443 17.146 86.7643 17.0014 87.1003 16.712C87.4456 16.4134 87.6229 15.998 87.6323 15.466V10.748H88.8923L88.8783 17.986H87.8843L87.7723 16.516C87.6603 17.076 87.4036 17.4867 87.0023 17.748C86.6009 18 86.1389 18.126 85.6163 18.126Z" fill="white"/>
<path d="M92.5021 9.25002H91.1581V7.93402H92.5021V9.25002ZM92.4601 18H91.2001V10.762H92.4601V18Z" fill="white"/>
<path d="M97.3145 18.14C96.3345 18.14 95.5878 17.804 95.0745 17.132C94.5611 16.46 94.3045 15.5314 94.3045 14.346C94.3045 13.2354 94.5518 12.3394 95.0465 11.658C95.5411 10.9674 96.2645 10.622 97.2165 10.622C97.8231 10.622 98.3271 10.7574 98.7285 11.028C99.1298 11.2894 99.4098 11.5694 99.5685 11.868V7.59802H100.828V18H99.8625L99.7365 16.516C99.6058 16.9267 99.3538 17.3 98.9805 17.636C98.6071 17.972 98.0518 18.14 97.3145 18.14ZM97.5385 17.174C97.9305 17.174 98.2805 17.0854 98.5885 16.908C98.8965 16.7307 99.1345 16.4974 99.3025 16.208C99.4705 15.9094 99.5591 15.5827 99.5685 15.228V13.506C99.5498 13.254 99.4751 12.9834 99.3445 12.694C99.2231 12.4047 99.0131 12.1527 98.7145 11.938C98.4158 11.714 98.0285 11.602 97.5525 11.602C96.9085 11.602 96.4138 11.8354 96.0685 12.302C95.7231 12.7687 95.5505 13.45 95.5505 14.346C95.5505 15.298 95.7278 16.0074 96.0825 16.474C96.4371 16.9407 96.9225 17.174 97.5385 17.174Z" fill="white"/>
<path d="M103.85 14.682C103.85 15.41 104.027 16.0027 104.382 16.46C104.746 16.9174 105.268 17.146 105.95 17.146C106.416 17.146 106.804 17.0434 107.112 16.838C107.429 16.6234 107.658 16.3107 107.798 15.9H108.974C108.806 16.628 108.446 17.1834 107.896 17.566C107.345 17.9487 106.706 18.14 105.978 18.14C105.306 18.14 104.713 17.9954 104.2 17.706C103.696 17.4074 103.299 16.9827 103.01 16.432C102.73 15.872 102.59 15.214 102.59 14.458C102.59 13.2914 102.879 12.3627 103.458 11.672C104.046 10.972 104.853 10.622 105.88 10.622C106.878 10.622 107.648 10.944 108.19 11.588C108.74 12.2227 109.016 13.0954 109.016 14.206V14.682H103.85ZM107.812 13.814C107.812 13.1514 107.644 12.6147 107.308 12.204C106.981 11.7934 106.5 11.588 105.866 11.588C105.427 11.588 105.054 11.6954 104.746 11.91C104.447 12.1154 104.223 12.3907 104.074 12.736C103.924 13.072 103.85 13.4314 103.85 13.814H107.812Z" fill="white"/>
<path d="M115.737 11.686V16.166C115.737 16.5394 115.798 16.7867 115.919 16.908C116.05 17.02 116.288 17.076 116.633 17.076H117.417V17.916C117.202 18 116.848 18.042 116.353 18.042C115.644 18.042 115.149 17.8974 114.869 17.608C114.598 17.3187 114.463 16.8707 114.463 16.264V11.686H113.287V10.762H114.491L114.729 8.66202H115.737V10.762H117.375V11.686H115.737Z" fill="white"/>
<path d="M121.917 18.14C121.235 18.14 120.647 17.986 120.153 17.678C119.658 17.3607 119.28 16.922 119.019 16.362C118.757 15.802 118.627 15.158 118.627 14.43C118.627 13.6834 118.757 13.0254 119.019 12.456C119.289 11.8774 119.672 11.4294 120.167 11.112C120.671 10.7854 121.259 10.622 121.931 10.622C122.612 10.622 123.2 10.7854 123.695 11.112C124.189 11.4294 124.567 11.8774 124.829 12.456C125.09 13.0254 125.221 13.6787 125.221 14.416C125.221 15.144 125.085 15.7927 124.815 16.362C124.553 16.922 124.175 17.3607 123.681 17.678C123.186 17.986 122.598 18.14 121.917 18.14ZM121.945 17.146C122.617 17.146 123.121 16.8894 123.457 16.376C123.802 15.8627 123.975 15.1954 123.975 14.374C123.975 13.5434 123.802 12.876 123.457 12.372C123.121 11.868 122.612 11.616 121.931 11.616C121.249 11.616 120.736 11.8727 120.391 12.386C120.045 12.89 119.873 13.5527 119.873 14.374C119.873 15.1954 120.045 15.8627 120.391 16.376C120.745 16.8894 121.263 17.146 121.945 17.146Z" fill="white"/>
<path d="M131.856 11.686V16.166C131.856 16.5394 131.917 16.7867 132.038 16.908C132.169 17.02 132.407 17.076 132.752 17.076H133.536V17.916C133.322 18 132.967 18.042 132.472 18.042C131.763 18.042 131.268 17.8974 130.988 17.608C130.718 17.3187 130.582 16.8707 130.582 16.264V11.686H129.406V10.762H130.61L130.848 8.66202H131.856V10.762H133.494V11.686H131.856Z" fill="white"/>
<path d="M135.346 7.59802H136.564V11.784C136.76 11.4574 137.049 11.1914 137.432 10.986C137.824 10.7714 138.295 10.664 138.846 10.664C139.313 10.664 139.737 10.7574 140.12 10.944C140.503 11.1214 140.806 11.3734 141.03 11.7C141.254 12.0174 141.366 12.386 141.366 12.806V18H140.106V13.058C140.106 12.638 139.957 12.3067 139.658 12.064C139.369 11.8214 138.981 11.7 138.496 11.7C137.955 11.7 137.502 11.826 137.138 12.078C136.774 12.33 136.592 12.6847 136.592 13.142V18H135.346V7.59802Z" fill="white"/>
<path d="M144.387 14.682C144.387 15.41 144.564 16.0027 144.919 16.46C145.283 16.9174 145.805 17.146 146.487 17.146C146.953 17.146 147.341 17.0434 147.649 16.838C147.966 16.6234 148.195 16.3107 148.335 15.9H149.511C149.343 16.628 148.983 17.1834 148.433 17.566C147.882 17.9487 147.243 18.14 146.515 18.14C145.843 18.14 145.25 17.9954 144.737 17.706C144.233 17.4074 143.836 16.9827 143.547 16.432C143.267 15.872 143.127 15.214 143.127 14.458C143.127 13.2914 143.416 12.3627 143.995 11.672C144.583 10.972 145.39 10.622 146.417 10.622C147.415 10.622 148.185 10.944 148.727 11.588C149.277 12.2227 149.553 13.0954 149.553 14.206V14.682H144.387ZM148.349 13.814C148.349 13.1514 148.181 12.6147 147.845 12.204C147.518 11.7934 147.037 11.588 146.403 11.588C145.964 11.588 145.591 11.6954 145.283 11.91C144.984 12.1154 144.76 12.3907 144.611 12.736C144.461 13.072 144.387 13.4314 144.387 13.814H148.349Z" fill="white"/>
<line y1="-0.5" x2="44.0114" y2="-0.5" transform="matrix(-0.0227214 0.999742 -1 0 47 6)" stroke="#C6CACE"/>
</svg>
