<svg width="23" height="19" viewBox="0 0 23 19" fill="none" xmlns="http://www.w3.org/2000/svg">
<path d="M21.9213 2.51897C22.1817 2.77939 22.3119 3.09561 22.3119 3.46763C22.3119 3.83966 22.1817 4.15588 21.9213 4.41629L11.8209 14.5167L9.92355 16.4141C9.66313 16.6745 9.34691 16.8047 8.97489 16.8047C8.60286 16.8047 8.28664 16.6745 8.02623 16.4141L6.12891 14.5167L1.07868 9.46652C0.818266 9.2061 0.688058 8.88988 0.688058 8.51786C0.688058 8.14583 0.818266 7.82961 1.07868 7.5692L2.976 5.67187C3.23642 5.41146 3.55264 5.28125 3.92467 5.28125C4.29669 5.28125 4.61291 5.41146 4.87333 5.67187L8.97489 9.78739L18.1267 0.621651C18.3871 0.361234 18.7033 0.231026 19.0753 0.231026C19.4474 0.231026 19.7636 0.361234 20.024 0.621651L21.9213 2.51897Z" fill="#C7A97B"/>
</svg>
