<?xml version="1.0" encoding="UTF-8"?>
<svg width="14px" height="16px" viewBox="0 0 14 16" version="1.1" xmlns="http://www.w3.org/2000/svg" xmlns:xlink="http://www.w3.org/1999/xlink">
    <!-- Generator: Sketch 64 (93537) - https://sketch.com -->
    <title>glossary copy</title>
    <desc>Created with Sketch.</desc>
    <g id="Project" stroke="none" stroke-width="1" fill="none" fill-rule="evenodd">
        <g id="glossary-copy" fill="#005EA2">
            <path d="M13.9583,2.99612 C13.9583,2.25376 13.5274,1.631 12.9074,1.25803 C12.2875,0.885127 11.4706,0.755653 10.6759,0.999207 L7.41667,1.99802 L4.15746,0.999208 C3.36272,0.755654 2.54584,0.885127 1.92596,1.25803 C1.30597,1.631 0.875,2.25376 0.875,2.99612 L0.875,11.6299 C0.875,12.5372 1.54014,13.3298 2.50921,13.6268 L7.41667,15.1307 L12.3241,13.6268 C13.2932,13.3298 13.9583,12.5372 13.9583,11.6299 L13.9583,2.99612 Z M11.1429,2.17693 C11.4882,2.07112 11.8416,2.12807 12.107,2.28774 C12.3723,2.44735 12.5417,2.7033 12.5417,2.99612 L12.5417,11.6299 C12.5417,11.9855 12.2789,12.3198 11.8571,12.4491 L8.125,13.5928 L8.125,3.10179 L11.1429,2.17693 Z M2.29167,2.99612 C2.29167,2.7033 2.46099,2.44735 2.7263,2.28774 C2.99172,2.12808 3.34516,2.07112 3.69046,2.17694 L6.70833,3.10179 L6.70833,13.5928 L2.97621,12.4491 C2.55441,12.3198 2.29167,11.9855 2.29167,11.6299 L2.29167,2.99612 Z" id="Shape"></path>
        </g>
    </g>
</svg>