<svg width="9" height="13" viewBox="0 0 9 13" fill="none" xmlns="http://www.w3.org/2000/svg">
<path d="M8.2228 6.85156L2.42592 12.6484C2.32696 12.7474 2.20978 12.7969 2.07436 12.7969C1.93894 12.7969 1.82175 12.7474 1.7228 12.6484L0.425921 11.3516C0.326963 11.2526 0.277483 11.1354 0.277483 11C0.277483 10.8646 0.326963 10.7474 0.425921 10.6484L4.57436 6.5L0.425921 2.35156C0.326963 2.2526 0.277483 2.13542 0.277483 2C0.277483 1.86458 0.326963 1.7474 0.425921 1.64844L1.7228 0.351562C1.82175 0.252604 1.93894 0.203125 2.07436 0.203125C2.20978 0.203125 2.32696 0.252604 2.42592 0.351562L8.2228 6.14844C8.32175 6.2474 8.37123 6.36458 8.37123 6.5C8.37123 6.63542 8.32175 6.7526 8.2228 6.85156Z" fill="#C7A97B"/>
</svg>
