<svg width="193" height="35" viewBox="0 0 193 35" fill="none" xmlns="http://www.w3.org/2000/svg">
<path d="M31.2203 10.5471L34.6892 7.0716V30.1212C34.6892 32.6805 32.6184 34.7552 30.064 34.7552H4.62523C2.07079 34.7552 0 32.6805 0 30.1212V4.63403C0 2.07472 2.07079 0 4.62523 0H26.6526L23.1837 3.47552H4.62523C3.98662 3.47552 3.46892 3.9942 3.46892 4.63403V30.1212C3.46892 30.761 3.98662 31.2797 4.62523 31.2797H30.064C30.7026 31.2797 31.2203 30.761 31.2203 30.1212V10.5471Z" fill="#C7A97B"/>
<path fill-rule="evenodd" clip-rule="evenodd" d="M12.5748 11.8385C13.2932 11.8385 13.8756 12.422 13.8756 13.1418V26.6094H11.2739V13.1418C11.2739 12.422 11.8563 11.8385 12.5748 11.8385ZM17.7782 7.49409C18.4966 7.49409 19.079 8.07761 19.079 8.79741V26.6094H16.4773V8.79741C16.4773 8.07761 17.0597 7.49409 17.7782 7.49409ZM22.9815 16.1829C23.7 16.1829 24.2824 16.7664 24.2824 17.4862V26.6094H21.6807V17.4862C21.6807 16.7664 22.2631 16.1829 22.9815 16.1829Z" fill="#2C608A"/>
<path d="M48.2103 26.6236V10.9998L46.1534 10.7199V9.06597H49.8102C50.2673 9.06597 50.8091 9.04052 51.4355 8.98963C52.5528 8.92177 53.467 8.88785 54.1781 8.88785C56.379 8.88785 58.0635 9.32042 59.2316 10.1856C60.4167 11.0507 61.0093 12.5181 61.0093 14.5877C61.0093 15.877 60.6876 17.005 60.0443 17.972C59.4009 18.922 58.5375 19.6514 57.454 20.1603C56.3705 20.6692 55.1854 20.9237 53.8988 20.9237H52.629C52.0026 20.9237 51.5709 20.9407 51.3339 20.9746V26.6236L54.5336 27.0307V28.3539H45.9248V27.0307L48.2103 26.6236ZM51.3339 19.2188C51.8756 19.3037 52.6798 19.3461 53.7464 19.3461C54.9992 19.3461 55.9981 18.9729 56.743 18.2264C57.4879 17.48 57.8603 16.2586 57.8603 14.5623C57.8603 13.2051 57.4625 12.1788 56.6668 11.4833C55.888 10.7878 54.7876 10.457 53.3655 10.4909C52.4005 10.5588 51.7233 10.6351 51.3339 10.7199V19.2188Z" fill="#2C608A"/>
<path d="M70.0887 8.88785C72.2388 8.88785 73.9148 9.27801 75.1168 10.0584C76.3358 10.8387 76.9453 12.1449 76.9453 13.977C76.9453 15.3341 76.5813 16.5046 75.8533 17.4885C75.1253 18.4555 74.1095 19.1595 72.8059 19.6005C72.8567 19.6175 72.9922 19.6938 73.2122 19.8295C73.7201 20.1518 74.1857 20.6353 74.609 21.2799C75.0491 21.9246 75.5909 22.8152 76.2342 23.9517C76.7083 24.7999 77.0892 25.4446 77.377 25.8856C77.6648 26.3097 77.9357 26.5642 78.1896 26.649L79.6371 27.0307V28.3539H75.447C75.1761 28.3539 74.8883 28.0994 74.5836 27.5905C74.2788 27.0646 73.8725 26.2419 73.3646 25.1223C72.6536 23.5446 72.0102 22.3147 71.4346 21.4326C70.8759 20.5505 70.2665 20.1094 69.6062 20.1094L67.727 20.1349V26.6236L70.2411 27.0307V28.3539H62.3179V27.0307L64.578 26.6236V10.949L62.5972 10.7199V9.06597H65.6954C66.0509 9.06597 66.3895 9.05748 66.7112 9.04052C67.0329 9.02356 67.3291 9.00659 67.6 8.98963C68.6497 8.92177 69.4792 8.88785 70.0887 8.88785ZM69.657 10.4655C69.5215 10.4824 69.3353 10.4909 69.0983 10.4909C68.4211 10.5249 67.964 10.5842 67.727 10.669V18.5063C68.1164 18.5572 68.7343 18.5827 69.5808 18.5827C70.969 18.5827 72.0187 18.2519 72.7297 17.5903C73.4408 16.9117 73.7963 15.8261 73.7963 14.3332C73.7963 13.0779 73.4577 12.111 72.7805 11.4324C72.1203 10.7539 71.0791 10.4316 69.657 10.4655Z" fill="#2C608A"/>
<path d="M81.1592 26.6236L87.4825 9.06597H90.3267L96.3961 26.6236L98.3514 27.0561V28.3539H91.0885V27.0561L92.9932 26.6236L91.9774 23.3919H84.8161L83.7495 26.5981L85.7303 27.0307V28.3539H79.4324V27.0307L81.1592 26.6236ZM89.5395 15.7328L88.4475 12.094L85.3747 21.6107H91.3933L89.5395 15.7328Z" fill="#2C608A"/>
<path d="M115.054 8.88785C116.239 8.88785 117.34 8.96418 118.356 9.11686C119.388 9.26953 120.26 9.43917 120.971 9.62577L120.743 13.4935H119.092L118.279 11.3561C118.11 11.1525 117.687 10.9659 117.01 10.7963C116.332 10.6097 115.477 10.5249 114.445 10.5418C113.277 10.5418 112.227 10.8811 111.296 11.5597C110.382 12.2212 109.662 13.1458 109.137 14.3332C108.612 15.5207 108.35 16.8778 108.35 18.4046C108.35 19.9652 108.562 21.4072 108.985 22.7303C109.425 24.0535 110.094 25.1222 110.991 25.9365C111.905 26.7338 113.031 27.1325 114.369 27.1325C115.147 27.1325 115.884 27.0222 116.578 26.8017C117.289 26.5642 117.797 26.2079 118.102 25.7329V21.3308L115.257 21.0764V19.5496H122.47V21.0764L121.073 21.3308V27.4633C120.819 27.4463 120.455 27.4887 119.981 27.5905C119.524 27.6923 119.041 27.8025 118.533 27.9213C117.551 28.1757 116.679 28.3708 115.918 28.5065C115.173 28.6422 114.428 28.7101 113.683 28.7101C111.99 28.7101 110.483 28.303 109.163 27.4887C107.842 26.6744 106.818 25.5463 106.09 24.1044C105.362 22.6625 104.998 21.0424 104.998 19.2443C104.998 17.1747 105.438 15.3596 106.318 13.7989C107.199 12.2212 108.401 11.0083 109.925 10.1601C111.448 9.31194 113.158 8.88785 115.054 8.88785Z" fill="#2C608A"/>
<path d="M124.395 16.1653V14.9948L128.153 14.1551L128.661 14.3841V22.9594C128.661 24.2825 128.822 25.2325 129.144 25.8093C129.482 26.3691 130.117 26.649 131.048 26.649C131.59 26.649 132.149 26.5303 132.724 26.2928C133.317 26.0553 133.748 25.8093 134.019 25.5548V16.8524L132.47 16.2926V15.0203L136.61 14.1551L137.067 14.3587V27.0561H138.54V28.1757C138.286 28.3284 137.871 28.4641 137.295 28.5829C136.72 28.7016 136.22 28.761 135.797 28.761C135.34 28.761 134.976 28.6592 134.705 28.4556C134.451 28.269 134.324 27.9807 134.324 27.5905V26.7508C133.732 27.3275 133.037 27.7856 132.242 28.1249C131.446 28.4641 130.684 28.6338 129.956 28.6338C128.737 28.6338 127.815 28.4132 127.188 27.9722C126.579 27.5142 126.172 26.8865 125.969 26.0892C125.766 25.2919 125.656 24.2401 125.639 22.9339V16.7251L124.395 16.1653Z" fill="#2C608A"/>
<path d="M144.068 7.51377C144.694 7.51377 145.168 7.68341 145.49 8.02269C145.829 8.345 145.998 8.78606 145.998 9.34587C145.998 9.97353 145.769 10.4909 145.312 10.8981C144.855 11.3052 144.322 11.5088 143.712 11.5088C143.188 11.5088 142.73 11.3391 142.341 10.9998C141.969 10.6606 141.782 10.2195 141.782 9.67667C141.782 9.08293 142.019 8.57401 142.493 8.14992C142.967 7.72582 143.492 7.51377 144.068 7.51377ZM145.719 14.4096V26.7762L147.649 27.0561V28.3539H140.716V27.0561L142.671 26.7762V17.4885L140.995 16.2671V15.3511L144.982 14.1551L145.719 14.4096Z" fill="#2C608A"/>
<path d="M161.939 8.45527V27.0561H163.641V28.1503C163.336 28.3199 162.904 28.4641 162.346 28.5829C161.787 28.7016 161.211 28.761 160.619 28.761C160.077 28.761 159.688 28.6592 159.451 28.4556C159.214 28.2521 159.061 27.8958 158.994 27.3869C158.621 27.7262 158.063 28.0316 157.318 28.303C156.59 28.5574 155.785 28.6847 154.905 28.6847C153.872 28.6847 152.933 28.4048 152.086 27.8449C151.24 27.2851 150.563 26.4794 150.055 25.4276C149.564 24.3589 149.318 23.0951 149.318 21.6362C149.318 20.1773 149.648 18.8711 150.309 17.7175C150.986 16.564 151.892 15.6649 153.026 15.0203C154.177 14.3587 155.438 14.0279 156.81 14.0279C157.572 14.0279 158.24 14.1127 158.816 14.2824V10.5673L156.124 10.0329V8.68428L161.279 8.14992L161.939 8.45527ZM156.48 15.5037C155.802 15.5037 155.159 15.7158 154.55 16.1399C153.94 16.564 153.441 17.1917 153.051 18.0229C152.679 18.8541 152.493 19.8635 152.493 21.0509C152.493 22.2045 152.653 23.2223 152.975 24.1044C153.297 24.9865 153.737 25.6651 154.296 26.1401C154.871 26.6151 155.515 26.8526 156.226 26.8526C156.734 26.8526 157.216 26.7847 157.673 26.649C158.147 26.5133 158.537 26.3182 158.841 26.0637V16.2926C158.249 15.7667 157.462 15.5037 156.48 15.5037Z" fill="#2C608A"/>
<path d="M172.699 14.0279C174.324 14.0279 175.585 14.5114 176.482 15.4783C177.397 16.4452 177.854 17.8023 177.854 19.5496C177.854 20.296 177.794 21 177.676 21.6616H168.712C168.745 23.2393 169.143 24.4691 169.905 25.3513C170.684 26.2334 171.784 26.6744 173.206 26.6744C173.833 26.6744 174.502 26.6066 175.213 26.4709C175.924 26.3182 176.499 26.1316 176.939 25.9111L177.473 27.1325C176.931 27.6075 176.144 27.9891 175.111 28.2775C174.078 28.5489 173.054 28.6847 172.038 28.6847C169.973 28.6677 168.373 28.0231 167.239 26.7508C166.104 25.4785 165.537 23.7482 165.537 21.5598C165.537 20.1179 165.842 18.8287 166.451 17.6921C167.061 16.5385 167.907 15.6395 168.991 14.9948C170.074 14.3502 171.31 14.0279 172.699 14.0279ZM172.114 15.5292C171.183 15.5292 170.413 15.9109 169.804 16.6743C169.211 17.4376 168.855 18.5403 168.737 19.9822H174.679C174.696 19.7956 174.705 19.5157 174.705 19.1425C174.705 17.8872 174.434 17.005 173.892 16.4961C173.553 15.8515 172.961 15.5292 172.114 15.5292Z" fill="#2C608A"/>
</svg>
