<?xml version="1.0" encoding="utf-8"?>
<!-- Generator: Adobe Illustrator 23.0.4, SVG Export Plug-In . SVG Version: 6.00 Build 0)  -->
<svg version="1.1" id="Layer_1" xmlns="http://www.w3.org/2000/svg" xmlns:xlink="http://www.w3.org/1999/xlink" x="0px" y="0px"
	 viewBox="0 0 436.5 50" style="enable-background:new 0 0 436.5 50;" xml:space="preserve">
<style type="text/css">
	.st0{fill:none;stroke:#C6CACE;}
	.st1{fill:none;}
	.st2{fill:#0F4878;}
	.st3{font-family:'Merriweather-Bold';}
	.st4{font-size:22px;}
	.st5{font-family:'PublicSans-Regular';}
	.st6{font-size:15px;}
	.st7{fill:none;stroke:#9B9B9B;stroke-width:0.4;stroke-linecap:square;}
	.st8{fill:none;stroke:#9B9B9B;stroke-width:0.4;}
	.st9{fill:#D8D8D8;stroke:#9B9B9B;stroke-width:0.4;}
</style>
<line class="st0" x1="51.5" y1="4" x2="50.5" y2="48"/>
<rect x="59.3" y="27" class="st1" width="381.1" height="25.2"/>
<text transform="matrix(1 0 0 1 59.3109 44.9951)" class="st2 st3 st4">Federal Enterprise Data Resources</text>
<rect x="60.2" y="8" class="st1" width="194" height="16"/>
<text transform="matrix(1 0 0 1 60.1835 19.1475)" class="st5 st6">A repository of </text>
<g id="triangle-connect" transform="translate(504.000000, 503.000000)">
	<path id="Line_60_" class="st7" d="M-481.8-457.2l-4.6-4.6"/>
	<path id="Line_61_" class="st7" d="M-486.4-461.8l-5.7,1.7"/>
	<path id="Line_62_" class="st7" d="M-492.2-460.1l-1.5-5.9"/>
	<path id="Line_63_" class="st7" d="M-493.6-466.1l-5.6-1"/>
	<path id="Line_64_" class="st7" d="M-499.2-467.1l1.3-6.3"/>
	<path id="Line_65_" class="st7" d="M-497.9-473.6l-4-3.8"/>
	<path id="line-adjust-2" class="st7" d="M-501.8-477.4l4.2-4.6"/>
	<path id="line-adjust-1" class="st7" d="M-497.7-482.2l-1.4-5.6"/>
	<path id="Line_66_" class="st7" d="M-499.2-487.7l5.6-0.8"/>
	<path id="Line_67_" class="st7" d="M-493.6-488.6l1.4-6.3"/>
	<path id="Line_68_" class="st7" d="M-486.4-493.1l-5.7-1.8"/>
	<path id="Line_69_" class="st7" d="M-482-497.7l-4.3,4.6"/>
	<path id="Line_70_" class="st7" d="M-481.8-497.8l4.2,4.6"/>
	<path id="Line_71_" class="st7" d="M-477.6-493.2l6-1.7"/>
	<path id="Line_72_" class="st7" d="M-471.6-494.9l1.1,6.2"/>
	<path id="Line_73_" class="st7" d="M-470.5-488.7l5.7,1.1"/>
	<path id="Line_74_" class="st7" d="M-464.7-487.6l-1.8,5.5"/>
	<path id="Line_75_" class="st7" d="M-466.6-482.1l4.6,4.8"/>
	<path id="Line_76_" class="st7" d="M-461.9-477.4l-4.6,3.9"/>
	<path id="Line_77_" class="st7" d="M-466.6-473.4l1.8,6.2"/>
	<path id="Line_78_" class="st7" d="M-464.7-467.3l-5.7,1.1"/>
	<path id="Line_79_" class="st7" d="M-470.5-466.1l-1.1,5.9"/>
	<path id="Line_80_" class="st7" d="M-471.6-460.1l-6-1.5"/>
	<path id="Line_81_" class="st7" d="M-477.6-461.7l-4.2,4.3"/>
</g>
<polygon id="Polygon-1" class="st8" points="22.1,5.4 32.2,8.1 39.6,15.5 42.3,25.6 39.6,35.7 32.2,43.1 22.1,45.8 12,43.1 
	4.6,35.7 1.9,25.6 4.6,15.5 12,8.1 "/>
<polygon id="Polygon-1_1_" class="st8" points="26.2,10 33.5,14.2 37.7,21.4 37.7,29.9 33.5,37.2 26.2,41.4 17.8,41.4 10.5,37.2 
	6.3,29.9 6.3,21.5 10.5,14.2 17.8,10 "/>
<g id="Nodes" transform="translate(499.000000, 500.000000)">
	<ellipse id="Oval-2" class="st9" cx="-476.9" cy="-494.6" rx="1" ry="1"/>
	<ellipse id="Oval-2_1_" class="st9" cx="-492.6" cy="-470.4" rx="1" ry="1"/>
	<ellipse id="Oval-adjust-1" class="st9" cx="-492.8" cy="-479.1" rx="1" ry="1"/>
	<ellipse id="Oval-2_2_" class="st9" cx="-461.6" cy="-470.4" rx="1" ry="1"/>
	<ellipse id="Oval-2_3_" class="st9" cx="-461.6" cy="-479.1" rx="1" ry="1"/>
	<ellipse id="Oval-2_4_" class="st9" cx="-487.1" cy="-491.8" rx="1" ry="1"/>
	<ellipse id="Oval-2_5_" class="st9" cx="-466.7" cy="-491.8" rx="1" ry="1"/>
	<ellipse id="Oval-2_6_" class="st9" cx="-481.4" cy="-490.1" rx="1" ry="1"/>
	<ellipse id="Oval-2_7_" class="st9" cx="-472.7" cy="-490.1" rx="1" ry="1"/>
	<ellipse id="Oval-2_8_" class="st9" cx="-465.4" cy="-485.6" rx="1" ry="1"/>
	<ellipse id="Oval-2_9_" class="st9" cx="-488.7" cy="-485.6" rx="1" ry="1"/>
	<ellipse id="Oval-2_10_" class="st9" cx="-472.7" cy="-458.7" rx="1" ry="1"/>
	<ellipse id="Oval-2_11_" class="st9" cx="-481.4" cy="-458.7" rx="1" ry="1"/>
	<ellipse id="Oval-2_12_" class="st9" cx="-488.7" cy="-463.2" rx="1" ry="1"/>
	<ellipse id="Oval-2_13_" class="st9" cx="-465.4" cy="-463.2" rx="1" ry="1"/>
	<ellipse id="Oval-2_14_" class="st9" cx="-496.9" cy="-474.4" rx="1" ry="1"/>
	<ellipse id="Oval-2_15_" class="st9" cx="-494.1" cy="-464.2" rx="1" ry="1"/>
	<ellipse id="Oval-2_16_" class="st9" cx="-494.1" cy="-484.6" rx="1" ry="1"/>
	<ellipse id="Oval-2_17_" class="st9" cx="-457" cy="-474.4" rx="1" ry="1"/>
	<ellipse id="Oval-2_18_" class="st9" cx="-459.8" cy="-484.6" rx="1" ry="1"/>
	<ellipse id="Oval-2_19_" class="st9" cx="-459.8" cy="-464.2" rx="1" ry="1"/>
	<ellipse id="Oval-2_20_" class="st9" cx="-476.9" cy="-454.4" rx="1" ry="1"/>
	<ellipse id="Oval-2_21_" class="st9" cx="-466.7" cy="-457.2" rx="1" ry="1"/>
	<ellipse id="Oval-2_22_" class="st9" cx="-487.1" cy="-457.2" rx="1" ry="1"/>
</g>
</svg>
