<?xml version="1.0" encoding="utf-8"?>
<!-- Generator: Adobe Illustrator 23.0.4, SVG Export Plug-In . SVG Version: 6.00 Build 0)  -->
<svg version="1.1" id="Layer_1" xmlns="http://www.w3.org/2000/svg" xmlns:xlink="http://www.w3.org/1999/xlink" x="0px" y="0px"
	 viewBox="0 0 436.5 50" style="enable-background:new 0 0 436.5 50;" xml:space="preserve">
<style type="text/css">
	.st0{fill:none;stroke:#C6CACE;}
	.st1{fill:#0F4878;}
	.st2{fill:none;stroke:#9B9B9B;stroke-width:0.4;stroke-linecap:square;}
	.st3{fill:none;stroke:#9B9B9B;stroke-width:0.4;}
	.st4{fill:#D8D8D8;stroke:#9B9B9B;stroke-width:0.4;}
</style>
<line class="st0" x1="51.5" y1="4" x2="50.5" y2="48"/>
<g>
	<path class="st1" d="M61.9,30.3L60.1,30v-1.4h12.1l0.2,4h-1.8l-0.8-2.4L65.1,30v6.2l3.3-0.1l0.4-1.9h1.4v5.6h-1.4l-0.4-2l-3.3-0.1
		v5.7l3.4,0.2V45h-8.3v-1.3l1.7-0.2V30.3z"/>
	<path class="st1" d="M75.2,43.5c-0.9-1.1-1.4-2.7-1.4-4.7c0-1.3,0.2-2.5,0.7-3.4c0.5-1,1.2-1.7,2.1-2.2c0.9-0.5,1.9-0.8,3.1-0.8
		c1.5,0,2.6,0.4,3.4,1.2s1.2,1.9,1.2,3.3c0,1-0.1,1.7-0.2,2.2H77c0.1,1.3,0.4,2.4,0.9,3.1c0.6,0.7,1.4,1.1,2.4,1.1
		c0.6,0,1.2-0.1,1.8-0.3s1.1-0.4,1.4-0.7l0.6,1.2c-0.4,0.4-1,0.8-1.9,1.2c-0.9,0.4-1.8,0.5-2.7,0.5C77.6,45.2,76.2,44.7,75.2,43.5z
		 M81.2,37.7c0-0.4,0-0.7,0-0.9c0-2-0.7-2.9-2-2.9c-0.7,0-1.3,0.3-1.7,0.9c-0.4,0.6-0.6,1.6-0.7,3H81.2z"/>
	<path class="st1" d="M88.2,44.6c-0.7-0.4-1.3-1.1-1.7-2c-0.4-0.9-0.6-2-0.6-3.4c0-1.2,0.3-2.4,0.8-3.4c0.5-1,1.2-1.8,2.2-2.4
		c1-0.6,2.2-0.9,3.5-0.9c0.6,0,1.1,0.1,1.6,0.2v-3.7l-2.2-0.3v-1.2l4.5-0.4h0.1l0.6,0.5v16.2h1.2v1.3c-1.1,0.2-1.9,0.3-2.6,0.3
		c-0.5,0-0.8-0.1-1-0.2c-0.2-0.2-0.3-0.5-0.3-0.9v-0.6c-0.4,0.5-0.9,0.9-1.6,1.3s-1.4,0.5-2.1,0.5C89.8,45.2,89,45,88.2,44.6z
		 M93.1,43.1c0.4-0.2,0.7-0.4,0.9-0.7v-8c-0.1-0.1-0.3-0.3-0.6-0.4s-0.7-0.2-1.1-0.2c-0.9,0-1.7,0.4-2.3,1.2
		c-0.6,0.8-0.8,2.1-0.8,3.9c0,1.5,0.2,2.6,0.7,3.3c0.5,0.7,1.1,1.1,1.9,1.1C92.3,43.4,92.7,43.3,93.1,43.1z"/>
	<path class="st1" d="M101.1,43.5c-0.9-1.1-1.4-2.7-1.4-4.7c0-1.3,0.2-2.5,0.7-3.4c0.5-1,1.2-1.7,2.1-2.2c0.9-0.5,1.9-0.8,3.1-0.8
		c1.5,0,2.6,0.4,3.4,1.2s1.2,1.9,1.2,3.3c0,1-0.1,1.7-0.2,2.2h-7.2c0.1,1.3,0.4,2.4,0.9,3.1c0.6,0.7,1.4,1.1,2.4,1.1
		c0.6,0,1.2-0.1,1.8-0.3s1.1-0.4,1.4-0.7l0.6,1.2c-0.4,0.4-1,0.8-1.9,1.2c-0.9,0.4-1.8,0.5-2.7,0.5C103.5,45.2,102,44.7,101.1,43.5z
		 M107.1,37.7c0-0.4,0-0.7,0-0.9c0-2-0.7-2.9-2-2.9c-0.7,0-1.3,0.3-1.7,0.9c-0.4,0.6-0.6,1.6-0.7,3H107.1z"/>
	<path class="st1" d="M112,43.7l1.5-0.2v-8.7l-1.4-0.4v-1.5l3.4-0.5h0.1l0.5,0.4v0.5l-0.1,1.8h0.1c0.1-0.3,0.3-0.7,0.7-1.1
		c0.4-0.4,0.9-0.8,1.4-1.1c0.6-0.3,1.2-0.5,1.9-0.5c0.3,0,0.6,0,0.8,0.1v3.3c-0.4-0.3-1-0.5-1.6-0.5c-1.1,0-2,0.3-2.8,0.9v7.2
		l2.6,0.2V45H112V43.7z"/>
	<path class="st1" d="M124.1,38.5c1.3-0.7,3.1-1,5.2-1V37c0-0.6-0.1-1.1-0.2-1.4c-0.1-0.3-0.4-0.6-0.7-0.8c-0.3-0.2-0.8-0.3-1.4-0.3
		c-0.7,0-1.4,0.1-1.9,0.3c-0.6,0.2-1.2,0.4-1.8,0.7l-0.7-1.4c0.2-0.2,0.6-0.4,1.1-0.7c0.5-0.3,1.1-0.5,1.9-0.7
		c0.7-0.2,1.5-0.3,2.2-0.3c1.1,0,2,0.1,2.7,0.4c0.6,0.3,1.1,0.8,1.4,1.4s0.4,1.5,0.4,2.6v6.7h1.2v1.2c-0.3,0.1-0.7,0.1-1.3,0.2
		c-0.5,0.1-1,0.1-1.4,0.1c-0.5,0-0.8-0.1-1-0.2c-0.2-0.1-0.3-0.4-0.3-0.9v-0.6c-0.4,0.4-0.9,0.8-1.5,1.2c-0.6,0.4-1.3,0.5-2.1,0.5
		c-0.7,0-1.3-0.1-1.9-0.4c-0.6-0.3-1-0.7-1.4-1.3c-0.3-0.5-0.5-1.2-0.5-2C122.1,40.2,122.7,39.2,124.1,38.5z M128.3,43.1
		c0.4-0.2,0.7-0.4,1-0.7v-3.6c-1.3,0-2.3,0.2-3,0.7s-1,1-1,1.7c0,0.7,0.2,1.2,0.5,1.6c0.3,0.4,0.8,0.5,1.4,0.5
		C127.5,43.4,127.9,43.3,128.3,43.1z"/>
	<path class="st1" d="M136,28.9l-1.6-0.3v-1.2l4.1-0.5h0l0.6,0.4v16.1l1.6,0.2V45h-6.2v-1.3l1.5-0.2V28.9z"/>
	<path class="st1" d="M149.1,30.3l-1.8-0.3v-1.4H159l0.3,3.7h-1.5l-0.7-2.2l-4.8-0.2v5.9l3.1-0.1l0.4-1.8h1.4v5.3h-1.4l-0.4-1.9
		l-3.1-0.1v6.2l5.3-0.3l1.3-2.8l1.7,0.5l-0.6,4h-12.6v-1.3l1.7-0.2V30.3z"/>
	<path class="st1" d="M163.1,34.9l-1.4-0.4v-1.5l3.7-0.5h0.1l0.5,0.4v0.9l0,0.5c0.5-0.5,1.2-0.9,2-1.3c0.8-0.4,1.7-0.5,2.5-0.5
		c0.9,0,1.6,0.2,2.1,0.5c0.5,0.3,0.9,0.8,1.1,1.6c0.2,0.7,0.3,1.7,0.3,2.9v6.1l1.3,0.2V45h-5.7v-1.3l1.2-0.2v-6.1
		c0-0.8-0.1-1.4-0.2-1.8s-0.3-0.7-0.6-0.9s-0.7-0.3-1.2-0.3c-0.8,0-1.7,0.4-2.7,1.1v8l1.3,0.2V45h-5.7v-1.3l1.3-0.2V34.9z"/>
	<path class="st1" d="M178.5,44.6c-0.4-0.4-0.7-1.1-0.7-2v-8.1h-1.4v-1.1c0.1,0,0.3-0.1,0.6-0.2c0.3-0.1,0.5-0.2,0.7-0.3
		c0.2-0.2,0.5-0.5,0.6-1c0.1-0.3,0.4-1.1,0.7-2.3h1.8l0.1,3.2h3.4v1.7H181v6.2c0,0.8,0,1.4,0.1,1.7c0,0.3,0.1,0.6,0.3,0.6
		s0.4,0.1,0.8,0.1c0.4,0,0.7,0,1.1-0.1c0.4-0.1,0.7-0.2,1-0.3l0.4,1.2c-0.4,0.3-1,0.6-1.8,0.8s-1.6,0.4-2.3,0.4
		C179.6,45.2,178.9,45,178.5,44.6z"/>
	<path class="st1" d="M187.1,43.5c-0.9-1.1-1.4-2.7-1.4-4.7c0-1.3,0.2-2.5,0.7-3.4c0.5-1,1.2-1.7,2.1-2.2c0.9-0.5,1.9-0.8,3.1-0.8
		c1.5,0,2.6,0.4,3.4,1.2s1.2,1.9,1.2,3.3c0,1-0.1,1.7-0.2,2.2h-7.2c0.1,1.3,0.4,2.4,0.9,3.1c0.6,0.7,1.4,1.1,2.4,1.1
		c0.6,0,1.2-0.1,1.8-0.3s1.1-0.4,1.4-0.7l0.6,1.2c-0.4,0.4-1,0.8-1.9,1.2c-0.9,0.4-1.8,0.5-2.7,0.5C189.4,45.2,188,44.7,187.1,43.5z
		 M193.1,37.7c0-0.4,0-0.7,0-0.9c0-2-0.7-2.9-2-2.9c-0.7,0-1.3,0.3-1.7,0.9c-0.4,0.6-0.6,1.6-0.7,3H193.1z"/>
	<path class="st1" d="M197.9,43.7l1.5-0.2v-8.7l-1.4-0.4v-1.5l3.4-0.5h0.1l0.5,0.4v0.5l-0.1,1.8h0.1c0.1-0.3,0.3-0.7,0.7-1.1
		c0.4-0.4,0.9-0.8,1.4-1.1c0.6-0.3,1.2-0.5,1.9-0.5c0.3,0,0.6,0,0.8,0.1v3.3c-0.4-0.3-1-0.5-1.6-0.5c-1.1,0-2,0.3-2.8,0.9v7.2
		l2.6,0.2V45h-7.1V43.7z"/>
	<path class="st1" d="M219.7,41.9c-0.5,1-1.2,1.8-2.2,2.5s-2.1,0.9-3.5,0.9c-0.3,0-0.6,0-0.9-0.1c-0.3-0.1-0.6-0.1-0.8-0.2l0.1,1.8
		v2l2,0.3v1.3h-6.5v-1.3l1.4-0.3V34.9l-1.4-0.4v-1.5l3.6-0.5h0l0.6,0.4v1.2c0.4-0.5,0.9-0.9,1.5-1.2c0.6-0.3,1.3-0.5,2.1-0.5
		c1.4,0,2.5,0.5,3.4,1.5c0.9,1,1.3,2.5,1.3,4.5C220.5,39.7,220.2,40.8,219.7,41.9z M213.3,34.6c-0.4,0.2-0.7,0.4-0.9,0.6v8.2
		c0.1,0.1,0.3,0.3,0.6,0.4s0.7,0.2,1,0.2c1,0,1.7-0.4,2.3-1.2c0.6-0.8,0.8-2.1,0.8-3.9c0-1.5-0.2-2.6-0.7-3.4
		c-0.5-0.7-1.1-1.1-1.9-1.1C214.1,34.3,213.7,34.4,213.3,34.6z"/>
	<path class="st1" d="M222.3,43.7l1.5-0.2v-8.7l-1.4-0.4v-1.5l3.4-0.5h0.1l0.5,0.4v0.5l-0.1,1.8h0.1c0.1-0.3,0.3-0.7,0.7-1.1
		c0.4-0.4,0.9-0.8,1.4-1.1c0.6-0.3,1.2-0.5,1.9-0.5c0.3,0,0.6,0,0.8,0.1v3.3c-0.4-0.3-1-0.5-1.6-0.5c-1.1,0-2,0.3-2.8,0.9v7.2
		l2.6,0.2V45h-7.1V43.7z"/>
	<path class="st1" d="M234.1,34.9l-1.6-0.4V33l4-0.5h0l0.6,0.4v10.6l1.5,0.2V45h-6.1v-1.3l1.5-0.2V34.9z M234,30.3
		c-0.3-0.3-0.5-0.7-0.5-1.2c0-0.6,0.2-1,0.5-1.4c0.4-0.4,0.8-0.5,1.4-0.5c0.6,0,1,0.2,1.3,0.5s0.5,0.7,0.5,1.2
		c0,0.6-0.2,1.1-0.5,1.4c-0.4,0.4-0.8,0.5-1.5,0.5h0C234.7,30.8,234.3,30.6,234,30.3z"/>
	<path class="st1" d="M242.7,43.2c0.1,0.2,0.4,0.3,0.8,0.5c0.4,0.2,0.8,0.2,1.3,0.2c0.7,0,1.2-0.1,1.6-0.4s0.5-0.7,0.5-1.1
		c0-0.5-0.2-0.9-0.6-1.2c-0.4-0.3-1.1-0.7-2.2-1.1l-0.6-0.3c-1-0.4-1.8-0.9-2.3-1.5c-0.5-0.6-0.7-1.4-0.7-2.3c0-0.7,0.2-1.3,0.6-1.8
		c0.4-0.5,1-0.9,1.7-1.2c0.7-0.3,1.5-0.4,2.5-0.4c0.7,0,1.3,0,1.8,0.1c0.5,0.1,1,0.2,1.6,0.4c0.3,0.1,0.5,0.2,0.7,0.2V36h-1.7
		l-0.5-1.7c-0.1-0.1-0.3-0.3-0.6-0.4s-0.7-0.2-1.1-0.2c-0.6,0-1.1,0.1-1.4,0.4s-0.5,0.6-0.5,1.1c0,0.4,0.1,0.8,0.4,1
		s0.5,0.5,0.8,0.6c0.3,0.1,0.8,0.4,1.6,0.7c0.8,0.3,1.4,0.7,2,1c0.5,0.3,1,0.7,1.3,1.2c0.3,0.5,0.5,1.1,0.5,1.8c0,1.1-0.4,2-1.3,2.6
		c-0.9,0.7-2.1,1-3.7,1c-0.7,0-1.4-0.1-2-0.2c-0.6-0.1-1.3-0.3-2.1-0.5l-0.5-0.2v-2.9h1.8L242.7,43.2z"/>
	<path class="st1" d="M252.9,43.5c-0.9-1.1-1.4-2.7-1.4-4.7c0-1.3,0.2-2.5,0.7-3.4c0.5-1,1.2-1.7,2.1-2.2c0.9-0.5,1.9-0.8,3.1-0.8
		c1.5,0,2.6,0.4,3.4,1.2s1.2,1.9,1.2,3.3c0,1-0.1,1.7-0.2,2.2h-7.2c0.1,1.3,0.4,2.4,0.9,3.1c0.6,0.7,1.4,1.1,2.4,1.1
		c0.6,0,1.2-0.1,1.8-0.3s1.1-0.4,1.4-0.7l0.6,1.2c-0.4,0.4-1,0.8-1.9,1.2c-0.9,0.4-1.8,0.5-2.7,0.5
		C255.3,45.2,253.8,44.7,252.9,43.5z M258.9,37.7c0-0.4,0-0.7,0-0.9c0-2-0.7-2.9-2-2.9c-0.7,0-1.3,0.3-1.7,0.9
		c-0.4,0.6-0.6,1.6-0.7,3H258.9z"/>
	<path class="st1" d="M270.6,30.3l-1.6-0.3v-1.4h3.2c0.5,0,1.1,0,2-0.1c0.2,0,0.5,0,0.9,0c0.4,0,0.7,0,1,0c2.7,0,4.7,0.7,6.1,2
		s2,3.3,2,5.7c0,1.7-0.3,3.3-1,4.6c-0.7,1.3-1.6,2.4-2.8,3.2c-1.2,0.8-2.7,1.1-4.3,1.1c-0.4,0-1.1,0-2-0.1c-0.9-0.1-1.4-0.1-1.7-0.1
		h-3.3v-1.3l1.7-0.2V30.3z M275.9,43.7c1.5,0,2.6-0.6,3.5-1.8s1.3-2.9,1.3-5.2c0-2.2-0.4-3.9-1.2-5.1s-2.1-1.8-3.8-1.8
		c-0.4,0-0.7,0-1,0.1c-0.3,0-0.6,0.1-0.7,0.1v13.5C274.3,43.7,275,43.7,275.9,43.7z"/>
	<path class="st1" d="M287.5,38.5c1.3-0.7,3.1-1,5.2-1V37c0-0.6-0.1-1.1-0.2-1.4c-0.1-0.3-0.4-0.6-0.7-0.8c-0.3-0.2-0.8-0.3-1.4-0.3
		c-0.7,0-1.4,0.1-1.9,0.3c-0.6,0.2-1.2,0.4-1.8,0.7l-0.7-1.4c0.2-0.2,0.6-0.4,1.1-0.7c0.5-0.3,1.1-0.5,1.9-0.7
		c0.7-0.2,1.5-0.3,2.2-0.3c1.1,0,2,0.1,2.7,0.4c0.6,0.3,1.1,0.8,1.4,1.4s0.4,1.5,0.4,2.6v6.7h1.2v1.2c-0.3,0.1-0.7,0.1-1.3,0.2
		c-0.5,0.1-1,0.1-1.4,0.1c-0.5,0-0.8-0.1-1-0.2c-0.2-0.1-0.3-0.4-0.3-0.9v-0.6c-0.4,0.4-0.9,0.8-1.5,1.2c-0.6,0.4-1.3,0.5-2.1,0.5
		c-0.7,0-1.3-0.1-1.9-0.4c-0.6-0.3-1-0.7-1.4-1.3c-0.3-0.5-0.5-1.2-0.5-2C285.5,40.2,286.2,39.2,287.5,38.5z M291.7,43.1
		c0.4-0.2,0.7-0.4,1-0.7v-3.6c-1.3,0-2.3,0.2-3,0.7s-1,1-1,1.7c0,0.7,0.2,1.2,0.5,1.6c0.3,0.4,0.8,0.5,1.4,0.5
		C290.9,43.4,291.3,43.3,291.7,43.1z"/>
	<path class="st1" d="M299.8,44.6c-0.4-0.4-0.7-1.1-0.7-2v-8.1h-1.4v-1.1c0.1,0,0.3-0.1,0.6-0.2c0.3-0.1,0.5-0.2,0.7-0.3
		c0.2-0.2,0.5-0.5,0.6-1c0.1-0.3,0.4-1.1,0.7-2.3h1.8l0.1,3.2h3.4v1.7h-3.3v6.2c0,0.8,0,1.4,0.1,1.7c0,0.3,0.1,0.6,0.3,0.6
		s0.4,0.1,0.8,0.1c0.4,0,0.7,0,1.1-0.1c0.4-0.1,0.7-0.2,1-0.3L306,44c-0.4,0.3-1,0.6-1.8,0.8s-1.6,0.4-2.3,0.4
		C301,45.2,300.3,45,299.8,44.6z"/>
	<path class="st1" d="M308.9,38.5c1.3-0.7,3.1-1,5.2-1V37c0-0.6-0.1-1.1-0.2-1.4c-0.1-0.3-0.4-0.6-0.7-0.8c-0.3-0.2-0.8-0.3-1.4-0.3
		c-0.7,0-1.4,0.1-1.9,0.3c-0.6,0.2-1.2,0.4-1.8,0.7l-0.7-1.4c0.2-0.2,0.6-0.4,1.1-0.7c0.5-0.3,1.1-0.5,1.9-0.7
		c0.7-0.2,1.5-0.3,2.2-0.3c1.1,0,2,0.1,2.7,0.4c0.6,0.3,1.1,0.8,1.4,1.4s0.4,1.5,0.4,2.6v6.7h1.2v1.2c-0.3,0.1-0.7,0.1-1.3,0.2
		c-0.5,0.1-1,0.1-1.4,0.1c-0.5,0-0.8-0.1-1-0.2c-0.2-0.1-0.3-0.4-0.3-0.9v-0.6c-0.4,0.4-0.9,0.8-1.5,1.2c-0.6,0.4-1.3,0.5-2.1,0.5
		c-0.7,0-1.3-0.1-1.9-0.4c-0.6-0.3-1-0.7-1.4-1.3c-0.3-0.5-0.5-1.2-0.5-2C306.9,40.2,307.6,39.2,308.9,38.5z M313.1,43.1
		c0.4-0.2,0.7-0.4,1-0.7v-3.6c-1.3,0-2.3,0.2-3,0.7s-1,1-1,1.7c0,0.7,0.2,1.2,0.5,1.6c0.3,0.4,0.8,0.5,1.4,0.5
		C312.4,43.4,312.7,43.3,313.1,43.1z"/>
	<path class="st1" d="M324.7,43.7l1.7-0.2V30.3l-1.6-0.3v-1.3h3.2c0.3,0,0.6,0,0.9,0c0.3,0,0.6,0,0.8,0c0.8-0.1,1.4-0.1,1.9-0.1
		c1.5,0,2.7,0.2,3.6,0.5c0.9,0.3,1.6,0.8,2,1.4c0.4,0.6,0.6,1.5,0.6,2.5c0,1-0.3,2-0.8,2.8c-0.5,0.9-1.3,1.5-2.4,1.8
		c0.6,0.2,1.1,0.7,1.6,1.4c0.5,0.7,0.9,1.5,1.5,2.6c0.4,0.7,0.6,1.2,0.8,1.6c0.2,0.3,0.4,0.5,0.6,0.5l0.7,0.2V45H336
		c-0.2,0-0.5-0.2-0.7-0.7s-0.6-1.2-1-2.3c-0.5-1.2-0.9-2.1-1.3-2.8c-0.4-0.7-0.7-1.1-1.1-1.3h-2.3v5.5l2,0.2V45h-7V43.7z
		 M333.6,35.7c0.5-0.6,0.7-1.5,0.7-2.7c0-1.1-0.2-1.9-0.7-2.4c-0.5-0.5-1.3-0.8-2.4-0.8c-0.4,0-0.8,0-1,0.1c-0.3,0-0.5,0.1-0.6,0.1
		v6.6c0.2,0,0.6,0,1.3,0h0.7C332.5,36.6,333.2,36.3,333.6,35.7z"/>
	<path class="st1" d="M341.9,43.5c-0.9-1.1-1.4-2.7-1.4-4.7c0-1.3,0.2-2.5,0.7-3.4c0.5-1,1.2-1.7,2.1-2.2c0.9-0.5,1.9-0.8,3.1-0.8
		c1.5,0,2.6,0.4,3.4,1.2s1.2,1.9,1.2,3.3c0,1-0.1,1.7-0.2,2.2h-7.2c0.1,1.3,0.4,2.4,0.9,3.1c0.6,0.7,1.4,1.1,2.4,1.1
		c0.6,0,1.2-0.1,1.8-0.3s1.1-0.4,1.4-0.7l0.6,1.2c-0.4,0.4-1,0.8-1.9,1.2c-0.9,0.4-1.8,0.5-2.7,0.5
		C344.3,45.2,342.9,44.7,341.9,43.5z M347.9,37.7c0-0.4,0-0.7,0-0.9c0-2-0.7-2.9-2-2.9c-0.7,0-1.3,0.3-1.7,0.9
		c-0.4,0.6-0.6,1.6-0.7,3H347.9z"/>
	<path class="st1" d="M355.2,43.2c0.1,0.2,0.4,0.3,0.8,0.5c0.4,0.2,0.8,0.2,1.3,0.2c0.7,0,1.2-0.1,1.6-0.4s0.5-0.7,0.5-1.1
		c0-0.5-0.2-0.9-0.6-1.2c-0.4-0.3-1.1-0.7-2.2-1.1l-0.6-0.3c-1-0.4-1.8-0.9-2.3-1.5c-0.5-0.6-0.7-1.4-0.7-2.3c0-0.7,0.2-1.3,0.6-1.8
		c0.4-0.5,1-0.9,1.7-1.2c0.7-0.3,1.5-0.4,2.5-0.4c0.7,0,1.3,0,1.8,0.1c0.5,0.1,1,0.2,1.6,0.4c0.3,0.1,0.5,0.2,0.7,0.2V36h-1.7
		l-0.5-1.7c-0.1-0.1-0.3-0.3-0.6-0.4s-0.7-0.2-1.1-0.2c-0.6,0-1.1,0.1-1.4,0.4s-0.5,0.6-0.5,1.1c0,0.4,0.1,0.8,0.4,1
		s0.5,0.5,0.8,0.6c0.3,0.1,0.8,0.4,1.6,0.7c0.8,0.3,1.4,0.7,2,1c0.5,0.3,1,0.7,1.3,1.2c0.3,0.5,0.5,1.1,0.5,1.8c0,1.1-0.4,2-1.3,2.6
		c-0.9,0.7-2.1,1-3.7,1c-0.7,0-1.4-0.1-2-0.2c-0.6-0.1-1.3-0.3-2.1-0.5l-0.5-0.2v-2.9h1.8L355.2,43.2z"/>
	<path class="st1" d="M365,35.4c0.5-1,1.3-1.7,2.2-2.2c0.9-0.5,1.9-0.7,3-0.7c1.8,0,3.3,0.6,4.3,1.7c1,1.1,1.5,2.7,1.5,4.6
		c0,1.4-0.3,2.6-0.8,3.6c-0.5,1-1.3,1.7-2.2,2.2s-1.9,0.7-3,0.7c-1.8,0-3.3-0.6-4.3-1.7s-1.5-2.7-1.5-4.6
		C364.2,37.5,364.5,36.3,365,35.4z M372.7,39c0-1.7-0.2-2.9-0.6-3.8c-0.4-0.9-1-1.3-1.9-1.3c-1.7,0-2.6,1.6-2.6,4.8
		c0,1.7,0.2,2.9,0.6,3.8c0.4,0.9,1.1,1.3,2,1.3C371.8,43.8,372.7,42.2,372.7,39z"/>
	<path class="st1" d="M386.9,44.9c-0.2-0.2-0.3-0.5-0.3-0.9v-0.6c-0.4,0.5-1,0.9-1.7,1.3s-1.4,0.6-2.2,0.6c-1.4,0-2.4-0.4-3-1.1
		c-0.6-0.7-0.9-1.9-0.9-3.6v-6.2l-1.1-0.3v-1.3l3.7-0.3h0l0.4,0.3v7.7c0,1.1,0.1,1.8,0.4,2.2c0.3,0.4,0.8,0.6,1.5,0.6
		c0.9,0,1.7-0.3,2.4-1v-8.1l-1.5-0.3v-1.2l4-0.3h0l0.5,0.3v10.8h1.2l0,1.3c-0.1,0-0.3,0.1-0.8,0.2c-0.5,0.1-1.1,0.2-1.7,0.2
		C387.5,45.2,387.1,45.1,386.9,44.9z"/>
	<path class="st1" d="M392.1,43.7l1.5-0.2v-8.7l-1.4-0.4v-1.5l3.4-0.5h0.1l0.5,0.4v0.5l-0.1,1.8h0.1c0.1-0.3,0.3-0.7,0.7-1.1
		c0.4-0.4,0.9-0.8,1.4-1.1c0.6-0.3,1.2-0.5,1.9-0.5c0.3,0,0.6,0,0.8,0.1v3.3c-0.4-0.3-1-0.5-1.6-0.5c-1.1,0-2,0.3-2.8,0.9v7.2
		l2.6,0.2V45h-7.1V43.7z"/>
	<path class="st1" d="M402.9,35.6c0.5-1,1.2-1.7,2.2-2.3c0.9-0.5,2-0.8,3.3-0.8c0.6,0,1.1,0,1.5,0.1c0.4,0.1,0.9,0.2,1.4,0.4
		l0.6,0.2l-0.1,3.8H410l-0.5-2.4c-0.1-0.4-0.5-0.6-1.3-0.6c-0.8,0-1.5,0.4-1.9,1.1c-0.5,0.7-0.7,1.8-0.7,3.4c0,1.6,0.3,2.8,0.8,3.7
		c0.6,0.9,1.3,1.3,2.2,1.3c1.1,0,2.1-0.3,3.1-0.9l0.5,1.1c-0.4,0.4-1,0.8-1.7,1.1c-0.8,0.4-1.6,0.5-2.5,0.5c-1.9,0-3.3-0.6-4.2-1.7
		c-0.9-1.2-1.4-2.7-1.4-4.6C402.2,37.7,402.4,36.6,402.9,35.6z"/>
	<path class="st1" d="M415.1,43.5c-0.9-1.1-1.4-2.7-1.4-4.7c0-1.3,0.2-2.5,0.7-3.4c0.5-1,1.2-1.7,2.1-2.2c0.9-0.5,1.9-0.8,3.1-0.8
		c1.5,0,2.6,0.4,3.4,1.2s1.2,1.9,1.2,3.3c0,1-0.1,1.7-0.2,2.2h-7.2c0.1,1.3,0.4,2.4,0.9,3.1c0.6,0.7,1.4,1.1,2.4,1.1
		c0.6,0,1.2-0.1,1.8-0.3s1.1-0.4,1.4-0.7l0.6,1.2c-0.4,0.4-1,0.8-1.9,1.2c-0.9,0.4-1.8,0.5-2.7,0.5C417.5,45.2,416,44.7,415.1,43.5z
		 M421.1,37.7c0-0.4,0-0.7,0-0.9c0-2-0.7-2.9-2-2.9c-0.7,0-1.3,0.3-1.7,0.9c-0.4,0.6-0.6,1.6-0.7,3H421.1z"/>
	<path class="st1" d="M428.4,43.2c0.1,0.2,0.4,0.3,0.8,0.5c0.4,0.2,0.8,0.2,1.3,0.2c0.7,0,1.2-0.1,1.6-0.4s0.5-0.7,0.5-1.1
		c0-0.5-0.2-0.9-0.6-1.2c-0.4-0.3-1.1-0.7-2.2-1.1l-0.6-0.3c-1-0.4-1.8-0.9-2.3-1.5c-0.5-0.6-0.7-1.4-0.7-2.3c0-0.7,0.2-1.3,0.6-1.8
		c0.4-0.5,1-0.9,1.7-1.2c0.7-0.3,1.5-0.4,2.5-0.4c0.7,0,1.3,0,1.8,0.1c0.5,0.1,1,0.2,1.6,0.4c0.3,0.1,0.5,0.2,0.7,0.2V36h-1.7
		l-0.5-1.7c-0.1-0.1-0.3-0.3-0.6-0.4s-0.7-0.2-1.1-0.2c-0.6,0-1.1,0.1-1.4,0.4s-0.5,0.6-0.5,1.1c0,0.4,0.1,0.8,0.4,1
		s0.5,0.5,0.8,0.6c0.3,0.1,0.8,0.4,1.6,0.7c0.8,0.3,1.4,0.7,2,1c0.5,0.3,1,0.7,1.3,1.2c0.3,0.5,0.5,1.1,0.5,1.8c0,1.1-0.4,2-1.3,2.6
		c-0.9,0.7-2.1,1-3.7,1c-0.7,0-1.4-0.1-2-0.2c-0.6-0.1-1.3-0.3-2.1-0.5l-0.5-0.2v-2.9h1.8L428.4,43.2z"/>
</g>
<g>
	<path d="M66.3,8.3l3.9,10.8h-1.4l-1.1-3h-4.4l-1.1,3h-1.4l3.9-10.8H66.3z M65.6,9.7l-1.9,5.2h3.7L65.6,9.7z"/>
	<path d="M76.9,11.4v1.5c0.2-0.5,0.5-0.9,1-1.2c0.5-0.3,1-0.5,1.6-0.5c0.1,0,0.2,0,0.2,0v1.4c0,0,0,0-0.1,0s-0.1,0-0.1,0
		c-0.1,0-0.2,0-0.3,0c-0.7,0-1.3,0.2-1.7,0.5c-0.4,0.3-0.6,0.7-0.6,1.3v4.8h-1.4v-7.8H76.9z"/>
	<path d="M82.4,16.9c0.2,0.4,0.4,0.7,0.7,0.9s0.7,0.3,1.2,0.3c0.5,0,0.9-0.1,1.2-0.3c0.3-0.2,0.6-0.6,0.7-1h1.3
		c-0.1,0.5-0.3,1-0.7,1.3c-0.3,0.4-0.7,0.6-1.1,0.8c-0.4,0.2-0.9,0.3-1.4,0.3c-0.7,0-1.4-0.2-1.9-0.5c-0.5-0.3-1-0.8-1.3-1.4
		c-0.3-0.6-0.5-1.3-0.5-2.1c0-0.8,0.1-1.5,0.4-2.1c0.3-0.6,0.7-1.1,1.2-1.4s1.2-0.5,1.9-0.5c0.7,0,1.3,0.2,1.8,0.5
		c0.5,0.3,0.9,0.8,1.2,1.3c0.3,0.6,0.4,1.3,0.4,2v0.5h-5.5C82.1,16.1,82.2,16.5,82.4,16.9z M86.1,13.4c-0.2-0.4-0.4-0.6-0.7-0.8
		c-0.3-0.2-0.7-0.3-1.1-0.3c-0.5,0-0.8,0.1-1.2,0.3c-0.3,0.2-0.6,0.5-0.7,0.9c-0.2,0.4-0.2,0.7-0.2,1.1h4.2
		C86.3,14.2,86.3,13.8,86.1,13.4z"/>
	<path d="M91,11.4v1.1c0.6-0.8,1.4-1.2,2.4-1.2c0.6,0,1.2,0.1,1.6,0.4s0.9,0.7,1.2,1.3c0.3,0.6,0.4,1.3,0.4,2.2
		c0,0.9-0.1,1.6-0.4,2.2c-0.3,0.6-0.7,1.1-1.2,1.4c-0.5,0.3-1.1,0.5-1.8,0.5c-0.4,0-0.8-0.1-1.2-0.3c-0.4-0.2-0.7-0.5-1-0.9v3.5
		h-1.4V11.4H91z M94.2,17.9c0.4-0.2,0.6-0.6,0.8-1c0.2-0.5,0.3-1,0.3-1.6c0-0.6-0.1-1.2-0.3-1.6c-0.2-0.4-0.5-0.8-0.8-1
		c-0.3-0.2-0.7-0.3-1.1-0.3c-0.4,0-0.7,0.1-1,0.3c-0.3,0.2-0.6,0.4-0.7,0.7c-0.2,0.3-0.3,0.6-0.3,0.8V17c0.2,0.4,0.5,0.7,0.9,0.9
		c0.3,0.2,0.7,0.3,1.1,0.3C93.4,18.2,93.8,18.1,94.2,17.9z"/>
	<path d="M99.7,18.8c-0.5-0.3-0.9-0.8-1.2-1.4c-0.3-0.6-0.4-1.3-0.4-2.1c0-0.8,0.1-1.5,0.4-2.1s0.7-1.1,1.2-1.4s1.2-0.5,1.9-0.5
		c0.7,0,1.4,0.2,1.9,0.5c0.5,0.3,0.9,0.8,1.2,1.4c0.3,0.6,0.4,1.3,0.4,2.1c0,0.8-0.1,1.5-0.4,2.1c-0.3,0.6-0.7,1.1-1.2,1.4
		c-0.5,0.3-1.2,0.5-1.9,0.5C100.9,19.3,100.2,19.1,99.7,18.8z M103.2,17.4c0.4-0.5,0.5-1.3,0.5-2.1c0-0.9-0.2-1.6-0.5-2.1
		s-0.9-0.8-1.6-0.8c-0.5,0-0.9,0.1-1.2,0.4c-0.3,0.3-0.6,0.6-0.7,1c-0.2,0.4-0.2,0.9-0.2,1.5c0,0.6,0.1,1.1,0.2,1.5
		c0.2,0.4,0.4,0.8,0.7,1s0.7,0.4,1.2,0.4C102.3,18.2,102.8,17.9,103.2,17.4z"/>
	<path d="M108.1,19c-0.5-0.2-0.8-0.4-1.1-0.8c-0.3-0.4-0.5-0.8-0.6-1.3h1.3c0.1,0.5,0.3,0.8,0.7,1c0.4,0.2,0.8,0.3,1.3,0.3
		c0.5,0,1-0.1,1.3-0.3s0.5-0.5,0.5-0.9c0-0.3-0.1-0.5-0.2-0.7s-0.4-0.3-0.8-0.4l-1.6-0.4c-0.7-0.2-1.2-0.4-1.5-0.7
		c-0.4-0.3-0.5-0.8-0.5-1.3c0-0.5,0.1-0.9,0.4-1.2c0.2-0.3,0.6-0.6,1-0.8c0.4-0.2,1-0.3,1.6-0.3c0.6,0,1.1,0.1,1.5,0.3
		c0.4,0.2,0.8,0.4,1,0.8c0.2,0.3,0.4,0.7,0.4,1.2h-1.2c-0.1-0.4-0.2-0.7-0.5-0.9c-0.3-0.2-0.7-0.3-1.1-0.3c-0.6,0-1,0.1-1.2,0.3
		c-0.3,0.2-0.4,0.5-0.4,0.9c0,0.3,0.1,0.5,0.3,0.6c0.2,0.2,0.5,0.3,1,0.4l1.6,0.4c0.6,0.2,1.1,0.4,1.4,0.8c0.3,0.4,0.4,0.8,0.4,1.3
		c0,0.5-0.1,0.9-0.4,1.3s-0.6,0.6-1.1,0.8c-0.5,0.2-1,0.3-1.5,0.3S108.6,19.2,108.1,19z"/>
	<path d="M114.7,9.8V8.3h1.4v1.4H114.7z M114.8,19.1v-7.8h1.3v7.8H114.8z"/>
	<path d="M120.9,17.2c0,0.3,0,0.5,0.1,0.6c0.1,0.1,0.1,0.2,0.3,0.2c0.1,0,0.3,0.1,0.6,0.1h0.8v0.9c-0.2,0.1-0.6,0.1-1.1,0.1
		c-0.5,0-0.9-0.1-1.2-0.2c-0.3-0.1-0.5-0.4-0.6-0.6c-0.1-0.3-0.2-0.6-0.2-1.1v-4.9h-1.3v-1h1.3l0.3-2.3h1v2.2h1.8v1h-1.8V17.2z"/>
	<path d="M125.7,18.8c-0.5-0.3-0.9-0.8-1.2-1.4c-0.3-0.6-0.4-1.3-0.4-2.1c0-0.8,0.1-1.5,0.4-2.1s0.7-1.1,1.2-1.4s1.2-0.5,1.9-0.5
		c0.7,0,1.4,0.2,1.9,0.5c0.5,0.3,0.9,0.8,1.2,1.4c0.3,0.6,0.4,1.3,0.4,2.1c0,0.8-0.1,1.5-0.4,2.1c-0.3,0.6-0.7,1.1-1.2,1.4
		c-0.5,0.3-1.2,0.5-1.9,0.5C126.8,19.3,126.2,19.1,125.7,18.8z M129.2,17.4c0.4-0.5,0.5-1.3,0.5-2.1c0-0.9-0.2-1.6-0.5-2.1
		s-0.9-0.8-1.6-0.8c-0.5,0-0.9,0.1-1.2,0.4c-0.3,0.3-0.6,0.6-0.7,1c-0.2,0.4-0.2,0.9-0.2,1.5c0,0.6,0.1,1.1,0.2,1.5
		c0.2,0.4,0.4,0.8,0.7,1s0.7,0.4,1.2,0.4C128.3,18.2,128.8,17.9,129.2,17.4z"/>
	<path d="M134.3,11.4v1.5c0.2-0.5,0.5-0.9,1-1.2c0.5-0.3,1-0.5,1.6-0.5c0.1,0,0.2,0,0.2,0v1.4c0,0,0,0-0.1,0s-0.1,0-0.1,0
		c-0.1,0-0.2,0-0.3,0c-0.7,0-1.3,0.2-1.7,0.5c-0.4,0.3-0.6,0.7-0.6,1.3v4.8H133v-7.8H134.3z"/>
	<path d="M139.1,21.6c-0.2,0-0.4-0.1-0.4-0.1v-0.9l0.8,0c0.4,0,0.6,0,0.9-0.1c0.2-0.1,0.4-0.2,0.5-0.3c0.1-0.1,0.2-0.3,0.3-0.4
		l0.3-0.7l-3-7.6h1.4l2.3,6l2.3-6h1.4l-3.3,8.3c-0.3,0.7-0.6,1.2-1,1.5s-0.9,0.4-1.5,0.4C139.5,21.6,139.3,21.6,139.1,21.6z"/>
	<path d="M151.5,18.8c-0.5-0.3-0.9-0.8-1.2-1.4c-0.3-0.6-0.4-1.3-0.4-2.1c0-0.8,0.1-1.5,0.4-2.1s0.7-1.1,1.2-1.4s1.2-0.5,1.9-0.5
		c0.7,0,1.4,0.2,1.9,0.5c0.5,0.3,0.9,0.8,1.2,1.4c0.3,0.6,0.4,1.3,0.4,2.1c0,0.8-0.1,1.5-0.4,2.1c-0.3,0.6-0.7,1.1-1.2,1.4
		c-0.5,0.3-1.2,0.5-1.9,0.5C152.7,19.3,152,19.1,151.5,18.8z M155,17.4c0.4-0.5,0.5-1.3,0.5-2.1c0-0.9-0.2-1.6-0.5-2.1
		s-0.9-0.8-1.6-0.8c-0.5,0-0.9,0.1-1.2,0.4c-0.3,0.3-0.6,0.6-0.7,1c-0.2,0.4-0.2,0.9-0.2,1.5c0,0.6,0.1,1.1,0.2,1.5
		c0.2,0.4,0.4,0.8,0.7,1s0.7,0.4,1.2,0.4C154.1,18.2,154.7,17.9,155,17.4z"/>
	<path d="M161,12.4v6.7h-1.4v-6.7H158v-1h1.6v-1.2c0-0.6,0.2-1.1,0.5-1.4c0.3-0.3,0.8-0.5,1.4-0.5h1.5l0,1h-1.2
		c-0.3,0-0.5,0.1-0.6,0.2C161,9.7,161,10,161,10.3v1.1h1.9v1H161z"/>
</g>
<g id="triangle-connect" transform="translate(504.000000, 503.000000)">
	<path id="Line_60_" class="st2" d="M-481.8-457.2l-4.6-4.6"/>
	<path id="Line_61_" class="st2" d="M-486.4-461.8l-5.7,1.7"/>
	<path id="Line_62_" class="st2" d="M-492.2-460.1l-1.5-5.9"/>
	<path id="Line_63_" class="st2" d="M-493.6-466.1l-5.6-1"/>
	<path id="Line_64_" class="st2" d="M-499.2-467.1l1.3-6.3"/>
	<path id="Line_65_" class="st2" d="M-497.9-473.6l-4-3.8"/>
	<path id="line-adjust-2" class="st2" d="M-501.8-477.4l4.2-4.6"/>
	<path id="line-adjust-1" class="st2" d="M-497.7-482.2l-1.4-5.6"/>
	<path id="Line_66_" class="st2" d="M-499.2-487.7l5.6-0.8"/>
	<path id="Line_67_" class="st2" d="M-493.6-488.6l1.4-6.3"/>
	<path id="Line_68_" class="st2" d="M-486.4-493.1l-5.7-1.8"/>
	<path id="Line_69_" class="st2" d="M-482-497.7l-4.3,4.6"/>
	<path id="Line_70_" class="st2" d="M-481.8-497.8l4.2,4.6"/>
	<path id="Line_71_" class="st2" d="M-477.6-493.2l6-1.7"/>
	<path id="Line_72_" class="st2" d="M-471.6-494.9l1.1,6.2"/>
	<path id="Line_73_" class="st2" d="M-470.5-488.7l5.7,1.1"/>
	<path id="Line_74_" class="st2" d="M-464.7-487.6l-1.8,5.5"/>
	<path id="Line_75_" class="st2" d="M-466.6-482.1l4.6,4.8"/>
	<path id="Line_76_" class="st2" d="M-461.9-477.4l-4.6,3.9"/>
	<path id="Line_77_" class="st2" d="M-466.6-473.4l1.8,6.2"/>
	<path id="Line_78_" class="st2" d="M-464.7-467.3l-5.7,1.1"/>
	<path id="Line_79_" class="st2" d="M-470.5-466.1l-1.1,5.9"/>
	<path id="Line_80_" class="st2" d="M-471.6-460.1l-6-1.5"/>
	<path id="Line_81_" class="st2" d="M-477.6-461.7l-4.2,4.3"/>
</g>
<polygon id="Polygon-1" class="st3" points="22.1,5.4 32.2,8.1 39.6,15.5 42.3,25.6 39.6,35.7 32.2,43.1 22.1,45.8 12,43.1 
	4.6,35.7 1.9,25.6 4.6,15.5 12,8.1 "/>
<polygon id="Polygon-1_1_" class="st3" points="26.2,10 33.5,14.2 37.7,21.4 37.7,29.9 33.5,37.2 26.2,41.4 17.8,41.4 10.5,37.2 
	6.3,29.9 6.3,21.5 10.5,14.2 17.8,10 "/>
<g id="Nodes" transform="translate(499.000000, 500.000000)">
	<ellipse id="Oval-2" class="st4" cx="-476.9" cy="-494.6" rx="1" ry="1"/>
	<ellipse id="Oval-2_1_" class="st4" cx="-492.6" cy="-470.4" rx="1" ry="1"/>
	<ellipse id="Oval-adjust-1" class="st4" cx="-492.8" cy="-479.1" rx="1" ry="1"/>
	<ellipse id="Oval-2_2_" class="st4" cx="-461.6" cy="-470.4" rx="1" ry="1"/>
	<ellipse id="Oval-2_3_" class="st4" cx="-461.6" cy="-479.1" rx="1" ry="1"/>
	<ellipse id="Oval-2_4_" class="st4" cx="-487.1" cy="-491.8" rx="1" ry="1"/>
	<ellipse id="Oval-2_5_" class="st4" cx="-466.7" cy="-491.8" rx="1" ry="1"/>
	<ellipse id="Oval-2_6_" class="st4" cx="-481.4" cy="-490.1" rx="1" ry="1"/>
	<ellipse id="Oval-2_7_" class="st4" cx="-472.7" cy="-490.1" rx="1" ry="1"/>
	<ellipse id="Oval-2_8_" class="st4" cx="-465.4" cy="-485.6" rx="1" ry="1"/>
	<ellipse id="Oval-2_9_" class="st4" cx="-488.7" cy="-485.6" rx="1" ry="1"/>
	<ellipse id="Oval-2_10_" class="st4" cx="-472.7" cy="-458.7" rx="1" ry="1"/>
	<ellipse id="Oval-2_11_" class="st4" cx="-481.4" cy="-458.7" rx="1" ry="1"/>
	<ellipse id="Oval-2_12_" class="st4" cx="-488.7" cy="-463.2" rx="1" ry="1"/>
	<ellipse id="Oval-2_13_" class="st4" cx="-465.4" cy="-463.2" rx="1" ry="1"/>
	<ellipse id="Oval-2_14_" class="st4" cx="-496.9" cy="-474.4" rx="1" ry="1"/>
	<ellipse id="Oval-2_15_" class="st4" cx="-494.1" cy="-464.2" rx="1" ry="1"/>
	<ellipse id="Oval-2_16_" class="st4" cx="-494.1" cy="-484.6" rx="1" ry="1"/>
	<ellipse id="Oval-2_17_" class="st4" cx="-457" cy="-474.4" rx="1" ry="1"/>
	<ellipse id="Oval-2_18_" class="st4" cx="-459.8" cy="-484.6" rx="1" ry="1"/>
	<ellipse id="Oval-2_19_" class="st4" cx="-459.8" cy="-464.2" rx="1" ry="1"/>
	<ellipse id="Oval-2_20_" class="st4" cx="-476.9" cy="-454.4" rx="1" ry="1"/>
	<ellipse id="Oval-2_21_" class="st4" cx="-466.7" cy="-457.2" rx="1" ry="1"/>
	<ellipse id="Oval-2_22_" class="st4" cx="-487.1" cy="-457.2" rx="1" ry="1"/>
</g>
</svg>
