<?xml version="1.0" encoding="utf-8"?>
<!-- Generator: Adobe Illustrator 24.1.0, SVG Export Plug-In . SVG Version: 6.00 Build 0)  -->
<svg version="1.1" id="Layer_1" xmlns="http://www.w3.org/2000/svg" xmlns:xlink="http://www.w3.org/1999/xlink" x="0px" y="0px"
	 viewBox="0 0 390.8 55.4" style="enable-background:new 0 0 390.8 55.4;" xml:space="preserve">
<style type="text/css">
	.st0{fill:#0A4678;}
	.st1{font-family:'PublicSans-Bold';}
	.st2{font-size:32px;}
	.st3{fill:#171717;}
	.st4{font-family:'PublicSans-Regular';}
	.st5{font-size:13px;}
	.st6{fill:none;stroke:#AEAEAE;stroke-linecap:square;}
	.st7{fill:none;stroke:#9B9B9B;stroke-linecap:square;}
	.st8{fill:none;stroke:#9B9B9B;}
	.st9{fill-rule:evenodd;clip-rule:evenodd;fill:#F0F0F0;stroke:#9B9B9B;}
</style>
<desc>Created with Sketch.</desc>
<g id="LOGO">
	<text transform="matrix(1 0 0 1 83.7648 25.1046)" class="st0 st1 st2">resources.data.gov</text>
	<text transform="matrix(1 0 0 1 83.7648 52.1046)" class="st3 st4 st5">A repository of Federal Enterprise Data Resources</text>
	<line id="Line-3" class="st6" x1="66.3" y1="2.6" x2="66.3" y2="51.6"/>
	<g id="Group">
		<g id="triangle-connect-copy" transform="translate(1.000000, 1.000000)">
			<line id="Line" class="st7" x1="24.9" y1="50.9" x2="19.4" y2="45.4"/>
			<line id="Line_1_" class="st7" x1="19.4" y1="45.4" x2="12.5" y2="47.3"/>
			<line id="Line_2_" class="st7" x1="12.5" y1="47.3" x2="10.7" y2="40.3"/>
			<line id="Line_3_" class="st7" x1="11" y1="40.3" x2="4.2" y2="39.1"/>
			<line id="Line_4_" class="st7" x1="4.2" y1="38.9" x2="5.8" y2="31.4"/>
			<line id="Line_5_" class="st7" x1="5.8" y1="31.2" x2="1" y2="26.8"/>
			<line id="line-adjust-2" class="st7" x1="1" y1="26.7" x2="6" y2="21.2"/>
			<line id="line-adjust-1" class="st7" x1="6" y1="20.9" x2="4.4" y2="14.2"/>
			<line id="Line_6_" class="st7" x1="4.2" y1="14.5" x2="11" y2="13.4"/>
			<line id="Line_7_" class="st7" x1="10.8" y1="13.4" x2="12.5" y2="5.9"/>
			<line id="Line_8_" class="st7" x1="19.4" y1="8" x2="12.5" y2="5.9"/>
			<line id="Line_9_" class="st7" x1="24.8" y1="2.5" x2="19.6" y2="8"/>
			<line id="Line_10_" class="st7" x1="24.9" y1="2.3" x2="30" y2="7.9"/>
			<line id="Line_11_" class="st7" x1="30" y1="7.9" x2="37.2" y2="5.9"/>
			<line id="Line_12_" class="st7" x1="37.2" y1="5.9" x2="38.6" y2="13.2"/>
			<line id="Line_13_" class="st7" x1="38.4" y1="13.2" x2="45.3" y2="14.6"/>
			<line id="Line_14_" class="st7" x1="45.3" y1="14.5" x2="43.2" y2="21.1"/>
			<line id="Line_15_" class="st7" x1="43.2" y1="21.1" x2="48.7" y2="26.8"/>
			<line id="Line_16_" class="st7" x1="48.7" y1="26.8" x2="43.2" y2="31.5"/>
			<line id="Line_17_" class="st7" x1="43.2" y1="31.5" x2="45.3" y2="38.9"/>
			<line id="Line_18_" class="st7" x1="45.3" y1="38.7" x2="38.4" y2="40.1"/>
			<line id="Line_19_" class="st7" x1="38.6" y1="40.1" x2="37.2" y2="47.2"/>
			<line id="Line_20_" class="st7" x1="37.2" y1="47.3" x2="30" y2="45.5"/>
			<line id="Line_21_" class="st7" x1="30" y1="45.5" x2="24.9" y2="50.7"/>
		</g>
		<polygon id="Polygon-1-Copy-2" class="st8" points="25.8,3.1 37.8,6.3 46.5,15.1 49.8,27.1 46.5,39.1 37.8,47.9 25.8,51.1 
			13.8,47.9 5,39.1 1.8,27.1 5,15.1 13.8,6.3 		"/>
		<polygon id="Polygon-1-Copy" class="st8" points="30.8,8.7 39.4,13.7 44.4,22.3 44.4,32.3 39.4,41 30.7,45.9 20.7,46 12.1,41 
			7.1,32.3 7.1,22.4 12.1,13.7 20.8,8.7 		"/>
		<g id="Nodes-Copy">
			<ellipse id="Oval-2" class="st9" cx="25.8" cy="3.2" rx="1.2" ry="1.1"/>
			<ellipse id="Oval-2_1_" class="st9" cx="7.1" cy="32.1" rx="1.2" ry="1.1"/>
			<ellipse id="Oval-adjust-1" class="st9" cx="6.8" cy="21.7" rx="1.2" ry="1.1"/>
			<ellipse id="Oval-2_2_" class="st9" cx="44.1" cy="32.1" rx="1.2" ry="1.1"/>
			<ellipse id="Oval-2_3_" class="st9" cx="44.1" cy="21.7" rx="1.2" ry="1.1"/>
			<ellipse id="Oval-2_4_" class="st9" cx="13.7" cy="6.6" rx="1.2" ry="1.1"/>
			<ellipse id="Oval-2_5_" class="st9" cx="38" cy="6.6" rx="1.2" ry="1.1"/>
			<ellipse id="Oval-2_6_" class="st9" cx="20.5" cy="8.6" rx="1.2" ry="1.1"/>
			<ellipse id="Oval-2_7_" class="st9" cx="30.9" cy="8.6" rx="1.2" ry="1.1"/>
			<ellipse id="Oval-2_8_" class="st9" cx="39.5" cy="13.9" rx="1.2" ry="1.1"/>
			<ellipse id="Oval-2_9_" class="st9" cx="11.9" cy="13.9" rx="1.2" ry="1.1"/>
			<ellipse id="Oval-2_10_" class="st9" cx="30.9" cy="45.8" rx="1.2" ry="1.1"/>
			<ellipse id="Oval-2_11_" class="st9" cx="20.5" cy="45.8" rx="1.2" ry="1.1"/>
			<ellipse id="Oval-2_12_" class="st9" cx="11.9" cy="40.4" rx="1.2" ry="1.1"/>
			<ellipse id="Oval-2_13_" class="st9" cx="39.5" cy="40.4" rx="1.2" ry="1.1"/>
			<ellipse id="Oval-2_14_" class="st9" cx="1.9" cy="27.2" rx="1.2" ry="1.1"/>
			<ellipse id="Oval-2_15_" class="st9" cx="5.3" cy="39.2" rx="1.2" ry="1.1"/>
			<ellipse id="Oval-2_16_" class="st9" cx="5.3" cy="15.1" rx="1.2" ry="1.1"/>
			<ellipse id="Oval-2_17_" class="st9" cx="49.6" cy="27.2" rx="1.2" ry="1.1"/>
			<ellipse id="Oval-2_18_" class="st9" cx="46.2" cy="15.1" rx="1.2" ry="1.1"/>
			<ellipse id="Oval-2_19_" class="st9" cx="46.2" cy="39.2" rx="1.2" ry="1.1"/>
			<ellipse id="Oval-2_20_" class="st9" cx="25.8" cy="51" rx="1.2" ry="1.1"/>
			<ellipse id="Oval-2_21_" class="st9" cx="38" cy="47.6" rx="1.2" ry="1.1"/>
			<ellipse id="Oval-2_22_" class="st9" cx="13.7" cy="47.6" rx="1.2" ry="1.1"/>
		</g>
	</g>
</g>
</svg>
